<svg xmlns="http://www.w3.org/2000/svg" width="94" height="85" fill="none" viewBox="0 0 94 85">
    <g clip-path="url(#clip0)">
        <path fill="#1452F5" d="M22.164 51.342V6.01L50.2 51.34H22.164zM70.15 51.243V5.558L46.915 38.494l7.555 12.75h15.68z"/>
    </g>
    <path fill="#494949" d="M1.745 77.204h1.994v-12.09h.042l4.965 12.09h1.33l4.964-12.09h.042v12.09h1.994V62.497h-2.97L9.472 73.63H9.39L4.716 62.497H1.745v14.707zm27.842-9.846h-1.87v5.069c0 2.285-1.184 3.282-2.742 3.282-1.184 0-2.244-.686-2.244-2.535v-5.816h-1.87v6.336c0 2.617 1.663 3.76 3.574 3.76 1.516 0 2.763-.727 3.24-1.766h.042v1.516h1.87v-9.846zm3.586 9.846h1.87V61.5h-1.87v15.704zm10.765-9.846h-2.68v-2.763H39.39v2.763h-2.16v1.62h2.16v5.131c0 1.579.042 3.345 2.93 3.345.373 0 1.246-.083 1.682-.333v-1.703c-.374.228-.893.29-1.33.29-1.412 0-1.412-1.163-1.412-2.264v-4.466h2.68v-1.62zm3.202 9.846h1.87v-9.846h-1.87v9.846zm-.437-13.378c0 .748.623 1.371 1.371 1.371s1.371-.623 1.371-1.37c0-.749-.623-1.372-1.37-1.372-.748 0-1.372.623-1.372 1.371zm5.178 11.717c.997 1.391 2.804 2.035 4.695 2.035 2.825 0 5.11-1.703 5.11-4.55 0-5.296-7.25-3.074-7.25-6.792 0-.914.665-2.244 2.867-2.244 1.142 0 2.119.52 2.617 1.288l1.62-1.474c-1.1-1.35-2.638-1.683-4.237-1.683-3.532 0-4.986 2.389-4.986 4.113 0 5.733 7.25 3.635 7.25 7.021 0 1.62-1.62 2.452-2.93 2.452-1.183 0-2.409-.499-3.115-1.58l-1.641 1.413zm14.056-5.817c.686-.52 1.371-1.122 2.805-1.122 1.6 0 2.347 1.06 2.347 2.078v.415h-1.37c-2.992 0-5.423.873-5.423 3.407 0 1.911 1.58 2.95 3.407 2.95 1.496 0 2.618-.478 3.449-1.745h.041c0 .498.02.997.063 1.495h1.661c-.062-.519-.083-1.1-.083-1.786V70.39c0-1.704-1.205-3.282-4.113-3.282-1.37 0-2.867.477-3.905 1.454l1.121 1.163zm5.152 2.742v.623c0 1.33-.727 2.867-2.804 2.867-1.288 0-2.119-.478-2.119-1.6 0-1.578 2.16-1.89 3.926-1.89h.997zm5.808 4.736h1.87v-8.226h2.243v-1.62h-2.223v-2.264c0-1.372.228-2.223 1.6-2.223.373 0 .706.041 1.059.187l.208-1.662c-.52-.125-.977-.146-1.392-.146-2.451 0-3.365 1.288-3.365 3.906v2.202h-2.12v1.62h2.12v8.226zm16.12-4.237v-.665c0-2.535-1.33-5.194-4.799-5.194-2.95 0-5.09 2.223-5.09 5.173 0 2.93 1.954 5.173 5.07 5.173 1.89 0 3.323-.665 4.362-2.015l-1.413-1.08c-.727.893-1.558 1.474-2.7 1.474-1.724 0-3.324-1.142-3.324-2.866h7.894zm-7.894-1.496c0-1.309 1.205-2.867 3.054-2.867 1.89 0 2.804 1.226 2.846 2.867h-5.9z"/>
    <defs>
        <clipPath id="clip0">
            <path fill="#fff" d="M0 0H51.934V51.934H0z" transform="translate(20.774)"/>
        </clipPath>
    </defs>
</svg>
