<svg width="164" height="51" viewBox="0 0 164 51" fill="none" xmlns="http://www.w3.org/2000/svg">
<path d="M51.968 32H54.848V17.888H54.896L60.056 32H62.168L67.328 17.888H67.376V32H70.256V15.008H65.696L61.112 26.912L56.576 15.008H51.968V32ZM85.5628 20.48H82.6828V26.768C82.6828 28.304 81.9388 29.696 80.0428 29.696C78.0268 29.696 77.9308 27.584 77.9308 26.312V20.48H75.0508V27.752C75.0508 30.104 76.1548 32.288 79.2508 32.288C81.1708 32.288 82.2508 31.304 82.7788 30.152H82.8268V32H85.5628V20.48ZM90.08 32H92.96V13.856H90.08V32ZM98.5218 22.928V28.208C98.5218 30.92 99.2418 32.288 102.29 32.288C102.962 32.288 103.97 32.192 104.57 31.904V29.48C104.21 29.744 103.514 29.84 103.01 29.84C101.738 29.84 101.402 29.12 101.402 27.968V22.928H104.57V20.48H101.402V17.144H98.5218V20.48H96.1458V22.928H98.5218ZM108.089 32H110.969V20.48H108.089V32ZM107.681 16.568C107.681 17.48 108.449 18.296 109.505 18.296C110.561 18.296 111.377 17.552 111.377 16.568C111.377 15.584 110.561 14.84 109.505 14.84C108.449 14.84 107.681 15.656 107.681 16.568ZM123.54 21.944C122.604 20.672 120.972 20.192 119.436 20.192C117.108 20.192 114.804 21.344 114.804 23.912C114.804 28.304 121.02 26.432 121.02 28.808C121.02 29.72 119.94 30.128 119.1 30.128C117.876 30.128 117.108 29.528 116.364 28.712L114.444 30.512C115.62 31.832 117.156 32.288 118.932 32.288C121.284 32.288 123.9 31.328 123.9 28.592C123.9 24.104 117.684 25.784 117.684 23.72C117.684 22.856 118.596 22.496 119.364 22.496C120.348 22.496 121.068 22.904 121.62 23.672L123.54 21.944ZM134.54 32H137.132V25.376C137.132 23.744 137.132 20.192 132.212 20.192C130.388 20.192 128.588 20.744 127.316 22.04L128.828 23.552C129.596 22.832 130.7 22.352 131.9 22.352C133.436 22.352 134.54 23.096 134.54 24.512V24.824H133.82C130.94 24.824 126.572 25.088 126.572 28.832C126.572 31.112 128.636 32.288 130.772 32.288C132.308 32.288 133.652 31.712 134.468 30.416H134.54V32ZM134.372 27.488C134.372 29.096 133.436 30.128 131.468 30.128C130.532 30.128 129.452 29.672 129.452 28.616C129.452 26.96 132.188 26.84 133.772 26.84H134.372V27.488ZM142.462 32H145.342V22.928H148.006V20.48H145.342V18.392C145.342 17.12 145.582 16.016 147.19 16.016C147.598 16.016 147.982 16.088 148.39 16.184L148.582 13.736C147.982 13.616 147.382 13.568 146.758 13.568C143.182 13.568 142.462 15.656 142.462 18.848V20.48H140.086V22.928H142.462V32ZM162.156 27.248V26.456C162.156 22.448 159.972 20.192 156.756 20.192C153.276 20.192 150.492 22.616 150.492 26.24C150.492 29.864 153.276 32.288 156.756 32.288C158.58 32.288 160.284 31.64 161.628 29.984L159.564 28.424C158.844 29.312 157.908 29.984 156.468 29.984C154.86 29.984 153.564 28.952 153.372 27.248H162.156ZM153.372 25.088C153.588 23.432 154.644 22.352 156.348 22.352C158.148 22.352 159.252 23.408 159.276 25.088H153.372Z" fill="#373737"/>
<path d="M15.5391 14.3438L35.5605 14.3438L15.5391 31.2275L15.5391 14.3438Z" fill="#042AC4"/>
<path d="M35.5605 14.3437L15.5391 14.3438L35.5605 31.2275V14.3437Z" fill="#0434EC"/>
</svg>
