<svg width="98" height="11" viewBox="0 0 98 11" fill="none" xmlns="http://www.w3.org/2000/svg">
<path d="M0.710581 8H1.84391V5.36455H2.65344C4.00264 5.36455 5.19893 5.07672 5.19893 3.47567C5.19893 2.0635 4.08359 1.63176 2.85132 1.63176H0.710581V8ZM1.84391 4.39313V2.60318H2.65344C3.26507 2.60318 4.01163 2.71112 4.01163 3.49366C4.01163 4.35715 3.17513 4.39313 2.52751 4.39313H1.84391ZM5.89448 5.84127C5.89448 7.19947 6.93786 8.10794 8.24209 8.10794C9.54632 8.10794 10.5897 7.19947 10.5897 5.84127C10.5897 4.48307 9.54632 3.57461 8.24209 3.57461C6.93786 3.57461 5.89448 4.48307 5.89448 5.84127ZM6.97384 5.84127C6.97384 5.16667 7.45056 4.54604 8.24209 4.54604C9.03362 4.54604 9.51034 5.16667 9.51034 5.84127C9.51034 6.51588 9.03362 7.13651 8.24209 7.13651C7.45056 7.13651 6.97384 6.51588 6.97384 5.84127ZM12.5177 8H13.6331L14.5415 5.04974H14.5595L15.5849 8H16.6553L18.1214 3.68255H17.0331L16.1336 6.70476H16.1156L15.1802 3.68255H14.0109L13.1384 6.70476H13.1204L12.1849 3.68255H11.0156L12.5177 8ZM22.9147 6.21905V5.92223C22.9147 4.42011 22.0962 3.57461 20.8909 3.57461C19.5867 3.57461 18.5433 4.48307 18.5433 5.84127C18.5433 7.19947 19.5867 8.10794 20.8909 8.10794C21.5745 8.10794 22.2131 7.86508 22.7168 7.24445L21.9433 6.65979C21.6734 6.99259 21.3226 7.24445 20.7829 7.24445C20.1803 7.24445 19.6946 6.85767 19.6226 6.21905H22.9147ZM19.6226 5.40953C19.7036 4.78889 20.0993 4.38413 20.738 4.38413C21.4126 4.38413 21.8263 4.7799 21.8353 5.40953H19.6226ZM23.9241 8H25.0034V5.68836C25.0034 5.4545 25.1473 4.60001 26.1637 4.60001C26.3346 4.60001 26.5055 4.63598 26.6854 4.68096V3.63757C26.5595 3.60159 26.4336 3.57461 26.2987 3.57461C25.732 3.57461 25.2553 3.87143 25.0214 4.36614H25.0034V3.68255H23.9241V8ZM31.4175 6.21905V5.92223C31.4175 4.42011 30.599 3.57461 29.3937 3.57461C28.0894 3.57461 27.0461 4.48307 27.0461 5.84127C27.0461 7.19947 28.0894 8.10794 29.3937 8.10794C30.0773 8.10794 30.7159 7.86508 31.2196 7.24445L30.4461 6.65979C30.1762 6.99259 29.8254 7.24445 29.2857 7.24445C28.6831 7.24445 28.1974 6.85767 28.1254 6.21905H31.4175ZM28.1254 5.40953C28.2064 4.78889 28.6021 4.38413 29.2408 4.38413C29.9154 4.38413 30.3291 4.7799 30.3381 5.40953H28.1254ZM35.8448 8H36.8702V1.20001H35.7909V4.23122H35.7639C35.539 3.95239 35.1073 3.57461 34.2978 3.57461C33.0655 3.57461 32.211 4.56403 32.211 5.84127C32.211 7.11852 33.0115 8.10794 34.3427 8.10794C34.9454 8.10794 35.512 7.87407 35.8269 7.35238H35.8448V8ZM33.2903 5.84127C33.2903 5.16667 33.7671 4.54604 34.5586 4.54604C35.3501 4.54604 35.8269 5.16667 35.8269 5.84127C35.8269 6.51588 35.3501 7.13651 34.5586 7.13651C33.7671 7.13651 33.2903 6.51588 33.2903 5.84127ZM40.754 8H41.7794V7.35238H41.7974C42.1122 7.87407 42.6788 8.10794 43.2815 8.10794C44.6127 8.10794 45.4132 7.11852 45.4132 5.84127C45.4132 4.56403 44.5587 3.57461 43.3265 3.57461C42.5169 3.57461 42.0852 3.95239 41.8603 4.23122H41.8333V1.20001H40.754V8ZM44.3339 5.84127C44.3339 6.51588 43.8571 7.13651 43.0656 7.13651C42.2741 7.13651 41.7974 6.51588 41.7974 5.84127C41.7974 5.16667 42.2741 4.54604 43.0656 4.54604C43.8571 4.54604 44.3339 5.16667 44.3339 5.84127ZM47.6788 8.03598L47.472 8.54868C47.2921 8.99841 47.1482 9.1873 46.6175 9.1873C46.4286 9.1873 46.2397 9.14233 46.0688 9.07936L45.9339 10.0508C46.2037 10.1227 46.4825 10.1587 46.7614 10.1587C47.7148 10.1587 48.0926 9.73598 48.4074 8.92645L50.4492 3.68255H49.3249L48.2455 6.67778H48.2275L47.0222 3.68255H45.8349L47.6788 8.03598Z" fill="#373737"/>
<g clip-path="url(#clip0_343_1345)">
<path fill-rule="evenodd" clip-rule="evenodd" d="M70.0718 5.89219V3.85156H71.0664V5.97334C71.0664 6.18459 71.1314 6.35393 71.2615 6.48166C71.3916 6.60931 71.5574 6.67325 71.7588 6.67325C71.9552 6.67325 72.1173 6.60805 72.245 6.47795C72.3727 6.34785 72.4366 6.17954 72.4366 5.97334V3.85156H73.4311V5.89219C73.4311 6.39317 73.2727 6.80091 72.9559 7.11511C72.6391 7.42954 72.2401 7.58664 71.7588 7.58664C71.2676 7.58664 70.8638 7.43073 70.547 7.11875C70.2301 6.80692 70.0718 6.39814 70.0718 5.89219Z" fill="#12141E"/>
<path fill-rule="evenodd" clip-rule="evenodd" d="M76.7231 5.67876C76.7231 5.37924 76.6349 5.13617 76.458 4.94932C76.2813 4.76292 76.0552 4.66953 75.7803 4.66953C75.5151 4.66953 75.2952 4.75795 75.121 4.93471C74.9465 5.11154 74.8594 5.35706 74.8594 5.67141C74.8594 5.98577 74.9465 6.23255 75.121 6.4116C75.2952 6.59111 75.5151 6.68064 75.7803 6.68064C76.0503 6.68064 76.275 6.5874 76.4543 6.40063C76.6336 6.214 76.7231 5.97345 76.7231 5.67876ZM77.2277 4.31223C77.5641 4.67317 77.7324 5.12623 77.7324 5.67141C77.7324 6.21652 77.5641 6.67203 77.2277 7.03794C76.8914 7.40377 76.4703 7.58676 75.9644 7.58676C75.5076 7.58676 75.1442 7.43945 74.8741 7.14475V8.82429H73.8796V3.85168H74.7931V4.3086C75.0436 3.95003 75.434 3.77075 75.9644 3.77075C76.4703 3.77075 76.8914 3.95115 77.2277 4.31223Z" fill="#12141E"/>
<path fill-rule="evenodd" clip-rule="evenodd" d="M79.0945 5.31021H80.7521C80.7472 5.08924 80.6697 4.91122 80.52 4.77615C80.3701 4.64115 80.1847 4.57365 79.9638 4.57365C79.7526 4.57365 79.5684 4.63989 79.4113 4.77252C79.254 4.90499 79.1485 5.08442 79.0945 5.31021ZM81.6507 6.01005H79.0945C79.1534 6.24103 79.2723 6.41905 79.4518 6.54419C79.6309 6.66954 79.8533 6.73215 80.1185 6.73215C80.4769 6.73215 80.8158 6.60931 81.1351 6.36364L81.5476 7.04153C81.1106 7.40499 80.6243 7.58664 80.0889 7.58664C79.5291 7.59636 79.054 7.41344 78.6635 7.03782C78.2731 6.66198 78.0827 6.20899 78.0927 5.67864C78.0827 5.15311 78.2668 4.70131 78.6451 4.32316C79.0232 3.94495 79.475 3.76084 80.0007 3.77063C80.5016 3.77063 80.9129 3.93263 81.2345 4.25685C81.5562 4.581 81.7171 4.98369 81.7171 5.46509C81.7171 5.6417 81.6949 5.82365 81.6507 6.01005Z" fill="#12141E"/>
<path fill-rule="evenodd" clip-rule="evenodd" d="M84.3901 3.85168V4.72843H84.1249C83.8203 4.72843 83.5809 4.8095 83.4067 4.97157C83.2322 5.13357 83.1452 5.36937 83.1452 5.67876V7.49834H82.1506V3.85168H83.0642V4.28634C83.3194 3.96724 83.6535 3.80762 84.066 3.80762C84.1888 3.80762 84.2969 3.8223 84.3901 3.85168Z" fill="#12141E"/>
<path fill-rule="evenodd" clip-rule="evenodd" d="M87.2102 7.49833H88.2047V1.88477H87.2102V7.49833ZM86.7352 1.88477V2.7762H86.4957C86.2649 2.7762 86.0966 2.82041 85.9911 2.90883C85.8855 2.99709 85.8327 3.14203 85.8327 3.34342V3.85166H86.7352V4.69155H85.8327V7.49833H84.8381V3.25507C84.8381 2.80327 84.961 2.462 85.2066 2.23101C85.452 2.00033 85.7983 1.88477 86.2452 1.88477H86.7352Z" fill="#12141E"/>
<path fill-rule="evenodd" clip-rule="evenodd" d="M88.6895 5.89219V3.85156H89.6841V5.97334C89.6841 6.18459 89.749 6.35393 89.8792 6.48166C90.0093 6.60931 90.1751 6.67325 90.3766 6.67325C90.5729 6.67325 90.735 6.60805 90.8626 6.47795C90.9904 6.34785 91.0542 6.17954 91.0542 5.97334V3.85156H92.0487V5.89219C92.0487 6.39317 91.8904 6.80091 91.5735 7.11511C91.2568 7.42954 90.8577 7.58664 90.3766 7.58664C89.8853 7.58664 89.4814 7.43073 89.1648 7.11875C88.8478 6.80692 88.6895 6.39814 88.6895 5.89219Z" fill="#12141E"/>
<path fill-rule="evenodd" clip-rule="evenodd" d="M92.5332 7.49823H93.5277V3.85156H92.5332V7.49823Z" fill="#12141E"/>
<path fill-rule="evenodd" clip-rule="evenodd" d="M96.6689 6.4153C96.843 6.23854 96.9304 5.9931 96.9304 5.67874C96.9304 5.36439 96.842 5.11761 96.6652 4.93833C96.4883 4.75905 96.2698 4.66952 96.0096 4.66952C95.7393 4.66952 95.5147 4.7629 95.3354 4.94931C95.1561 5.13615 95.0666 5.3767 95.0666 5.6714C95.0666 5.97107 95.155 6.21399 95.3318 6.40061C95.5086 6.58739 95.7344 6.68062 96.0096 6.68062C96.2748 6.68062 96.4944 6.59221 96.6689 6.4153ZM96.9157 1.88477H97.9101V7.49833H96.9967V7.0489C96.7462 7.40746 96.3557 7.58675 95.8254 7.58675C95.3145 7.58675 94.8921 7.4062 94.5583 7.04527C94.2242 6.68433 94.0574 6.22882 94.0574 5.67874C94.0574 5.12874 94.2242 4.67315 94.5583 4.31222C94.8921 3.95113 95.3145 3.77074 95.8254 3.77074C96.2869 3.77074 96.6504 3.91568 96.9157 4.2054V1.88477Z" fill="#12141E"/>
<path fill-rule="evenodd" clip-rule="evenodd" d="M68.5162 4.70613L67.9636 4.46314C67.7475 4.365 67.599 4.27777 67.518 4.20145C67.437 4.12549 67.3964 4.02602 67.3964 3.90326C67.3964 3.88502 67.3999 3.86885 67.4017 3.85156H66.3907C66.3896 3.87619 66.3872 3.90015 66.3872 3.92529C66.3872 4.50979 66.78 4.97635 67.5659 5.32505L68.0889 5.5607C68.3344 5.67382 68.4989 5.76832 68.5825 5.84435C68.666 5.92045 68.7078 6.02749 68.7078 6.16471C68.7078 6.3319 68.6463 6.46312 68.5236 6.55895C68.4008 6.65471 68.2313 6.70255 68.0153 6.70255C67.5633 6.70255 67.1655 6.46675 66.8218 5.99537L66.1367 6.51096C66.3282 6.84512 66.5873 7.1077 66.9139 7.29929C67.2404 7.49088 67.6076 7.58664 68.0153 7.58664C68.5112 7.58664 68.9189 7.45283 69.2381 7.18514C69.5573 6.91744 69.717 6.56511 69.717 6.12799C69.717 5.80377 69.6212 5.53259 69.4297 5.314C69.2381 5.09548 68.9336 4.89291 68.5162 4.70613Z" fill="#12141E"/>
<path fill-rule="evenodd" clip-rule="evenodd" d="M69.717 2.40454H68.27V3.12804H68.9935V3.85147H69.717V2.40454Z" fill="#12141E"/>
<path fill-rule="evenodd" clip-rule="evenodd" d="M93.5278 3.85151H94.6241V2.75513H93.5278V3.85151Z" fill="#12141E"/>
<path fill-rule="evenodd" clip-rule="evenodd" d="M61.6023 6.27677H59.6692V4.3437H57.736V2.41055H61.6023V6.27677ZM55.803 8.20985H57.736V6.27677H55.803V8.20985ZM53.405 1.17064V9.4499C53.405 10.0894 53.9234 10.6078 54.563 10.6078H62.8422C63.4818 10.6078 64.0002 10.0894 64.0002 9.4499V1.17064C64.0002 0.531104 63.4818 0.0126953 62.8422 0.0126953H54.563C53.9234 0.0126953 53.405 0.531104 53.405 1.17064Z" fill="#12141E"/>
</g>
<defs>
<clipPath id="clip0_343_1345">
<rect width="44.594" height="10.6812" fill="white" transform="translate(53.406)"/>
</clipPath>
</defs>
</svg>
