<svg width="364" height="260" viewBox="0 0 364 260" fill="none" xmlns="http://www.w3.org/2000/svg">
<path d="M347.595 260L11.9416 259.134C11.9416 254.244 -24.412 88.2627 29.7393 35.2211C55.1903 10.2862 78.0297 0.747177 98.2016 0.0416564C98.4502 0.0300588 98.6913 0.0242628 98.9362 0.0203969C148.688 -1.18382 182.113 51.3069 198.424 58.5883C256.243 84.3678 278.369 24.7272 323.515 44.4392C374.492 66.697 371.013 204.231 347.595 260Z" fill="#EBF3FA"/>
<path d="M172.201 83.1222H146.783C145.612 83.1222 144.663 84.0716 144.663 85.2428V109.776C144.663 110.947 145.612 111.896 146.783 111.896H172.201C173.372 111.896 174.322 110.947 174.322 109.776V85.2428C174.322 84.0716 173.372 83.1222 172.201 83.1222Z" fill="#C0D8FB"/>
<path d="M171.103 84.3699H147.886C146.816 84.3699 145.949 85.2371 145.949 86.3069V108.713C145.949 109.783 146.816 110.65 147.886 110.65H171.103C172.172 110.65 173.039 109.783 173.039 108.713V86.3069C173.039 85.2371 172.172 84.3699 171.103 84.3699Z" fill="#DFEBFD"/>
<path d="M158.886 86.9942C158.886 86.8726 158.922 86.7537 158.99 86.6527C159.057 86.5516 159.153 86.4728 159.266 86.4262C159.378 86.3797 159.502 86.3675 159.621 86.3913C159.74 86.415 159.85 86.4735 159.936 86.5595C160.022 86.6455 160.08 86.755 160.104 86.8743C160.128 86.9935 160.115 87.1171 160.069 87.2294C160.022 87.3417 159.944 87.4378 159.842 87.5053C159.741 87.5729 159.623 87.6089 159.501 87.6089C159.338 87.6089 159.182 87.5441 159.066 87.4288C158.951 87.3136 158.886 87.1572 158.886 86.9942Z" fill="#B7D3F3"/>
<path d="M163.839 87.8623C163.899 87.7562 163.988 87.6701 164.096 87.6148C164.204 87.5595 164.327 87.5375 164.447 87.5516C164.568 87.5657 164.682 87.6153 164.774 87.6941C164.867 87.7728 164.934 87.8773 164.967 87.9942C165 88.1111 164.998 88.2352 164.961 88.3509C164.924 88.4665 164.853 88.5685 164.758 88.644C164.662 88.7195 164.547 88.765 164.426 88.7749C164.305 88.7847 164.183 88.7584 164.077 88.6993C164.006 88.66 163.944 88.6072 163.894 88.5438C163.844 88.4805 163.807 88.4079 163.785 88.3301C163.763 88.2524 163.756 88.171 163.765 88.0908C163.775 88.0105 163.8 87.9329 163.839 87.8623Z" fill="#B7D3F3"/>
<path d="M168.086 91.2348C168.189 91.1702 168.309 91.1376 168.43 91.1411C168.552 91.1445 168.669 91.1839 168.769 91.2542C168.868 91.3246 168.944 91.4227 168.987 91.5362C169.03 91.6498 169.039 91.7736 169.012 91.8921C168.985 92.0105 168.924 92.1184 168.835 92.2019C168.747 92.2855 168.636 92.341 168.516 92.3615C168.397 92.3819 168.273 92.3665 168.162 92.317C168.051 92.2675 167.958 92.1862 167.893 92.0834C167.849 92.0151 167.82 91.9389 167.806 91.8591C167.793 91.7794 167.795 91.6977 167.813 91.6188C167.831 91.5399 167.864 91.4654 167.911 91.3994C167.958 91.3335 168.017 91.2776 168.086 91.2348Z" fill="#B7D3F3"/>
<path d="M170.189 96.4559C170.311 96.4559 170.43 96.492 170.531 96.5596C170.632 96.6272 170.711 96.7234 170.758 96.8358C170.804 96.9482 170.816 97.0719 170.792 97.1912C170.768 97.3105 170.71 97.4201 170.623 97.5059C170.537 97.5918 170.428 97.6502 170.308 97.6737C170.189 97.6972 170.065 97.6848 169.953 97.638C169.841 97.5911 169.745 97.5121 169.677 97.4107C169.61 97.3094 169.574 97.1903 169.575 97.0687C169.575 96.906 169.64 96.7501 169.755 96.6352C169.871 96.5204 170.027 96.4559 170.189 96.4559Z" fill="#B7D3F3"/>
<path d="M169.115 102.522C169.201 102.608 169.259 102.717 169.282 102.836C169.306 102.954 169.294 103.078 169.247 103.189C169.201 103.301 169.122 103.397 169.021 103.464C168.921 103.531 168.802 103.567 168.681 103.567C168.56 103.567 168.442 103.531 168.341 103.464C168.24 103.397 168.162 103.301 168.115 103.189C168.069 103.078 168.057 102.954 168.08 102.836C168.103 102.717 168.162 102.608 168.247 102.522C168.304 102.465 168.372 102.419 168.446 102.389C168.521 102.358 168.601 102.342 168.681 102.342C168.762 102.342 168.842 102.358 168.916 102.389C168.991 102.419 169.058 102.465 169.115 102.522Z" fill="#B7D3F3"/>
<path d="M165.265 106.389C165.351 106.475 165.41 106.585 165.433 106.704C165.457 106.823 165.445 106.947 165.398 107.059C165.352 107.172 165.273 107.268 165.172 107.335C165.071 107.403 164.952 107.439 164.831 107.439C164.709 107.439 164.59 107.403 164.489 107.335C164.388 107.268 164.309 107.172 164.263 107.059C164.216 106.947 164.204 106.823 164.228 106.704C164.251 106.585 164.31 106.475 164.396 106.389C164.453 106.332 164.52 106.286 164.595 106.255C164.67 106.224 164.75 106.208 164.831 106.208C164.911 106.208 164.991 106.224 165.066 106.255C165.141 106.286 165.209 106.332 165.265 106.389Z" fill="#B7D3F3"/>
<path d="M158.886 108.38C158.886 108.259 158.922 108.14 158.99 108.039C159.057 107.938 159.153 107.859 159.266 107.812C159.378 107.766 159.502 107.754 159.621 107.777C159.74 107.801 159.85 107.86 159.936 107.946C160.022 108.032 160.08 108.141 160.104 108.26C160.128 108.38 160.115 108.503 160.069 108.616C160.022 108.728 159.944 108.824 159.842 108.891C159.741 108.959 159.623 108.995 159.501 108.995C159.42 108.995 159.34 108.98 159.265 108.949C159.191 108.918 159.123 108.873 159.066 108.816C159.009 108.758 158.963 108.691 158.932 108.616C158.902 108.541 158.886 108.461 158.886 108.38Z" fill="#B7D3F3"/>
<path d="M155.131 87.8623C155.072 87.7562 154.983 87.6701 154.874 87.6148C154.766 87.5595 154.644 87.5375 154.523 87.5516C154.403 87.5657 154.289 87.6153 154.196 87.6941C154.104 87.7728 154.037 87.8773 154.003 87.9942C153.97 88.1111 153.972 88.2352 154.01 88.3509C154.047 88.4665 154.118 88.5685 154.213 88.644C154.308 88.7195 154.424 88.765 154.545 88.7749C154.666 88.7847 154.787 88.7584 154.894 88.6993C154.964 88.66 155.026 88.6072 155.077 88.5438C155.127 88.4805 155.164 88.4079 155.186 88.3301C155.208 88.2524 155.215 88.171 155.205 88.0908C155.196 88.0105 155.171 87.9329 155.131 87.8623Z" fill="#B7D3F3"/>
<path d="M150.885 91.2343C150.783 91.1683 150.664 91.1341 150.542 91.1361C150.42 91.138 150.302 91.176 150.202 91.2452C150.102 91.3144 150.025 91.4117 149.98 91.5248C149.935 91.638 149.925 91.7618 149.951 91.8807C149.977 91.9996 150.037 92.1082 150.125 92.1927C150.212 92.2773 150.323 92.334 150.442 92.3556C150.562 92.3773 150.685 92.3629 150.797 92.3144C150.909 92.2658 151.003 92.1853 151.069 92.083C151.157 91.946 151.187 91.7798 151.153 91.6207C151.118 91.4616 151.022 91.3227 150.885 91.2343Z" fill="#B7D3F3"/>
<path d="M148.783 96.4559C148.661 96.4555 148.542 96.4913 148.441 96.5587C148.34 96.6261 148.26 96.7221 148.214 96.8345C148.167 96.9469 148.155 97.0706 148.178 97.19C148.202 97.3095 148.26 97.4192 148.347 97.5053C148.433 97.5914 148.542 97.6499 148.662 97.6736C148.781 97.6973 148.905 97.6849 149.017 97.6382C149.13 97.5914 149.226 97.5123 149.293 97.4109C149.361 97.3095 149.396 97.1904 149.396 97.0687C149.396 96.9061 149.331 96.7503 149.216 96.6354C149.102 96.5204 148.946 96.4559 148.783 96.4559Z" fill="#B7D3F3"/>
<path d="M149.856 102.52C149.77 102.606 149.711 102.716 149.688 102.835C149.664 102.954 149.676 103.078 149.723 103.19C149.769 103.303 149.848 103.398 149.949 103.466C150.05 103.534 150.169 103.57 150.29 103.57C150.412 103.57 150.531 103.534 150.632 103.466C150.733 103.398 150.812 103.303 150.858 103.19C150.905 103.078 150.917 102.954 150.893 102.835C150.87 102.716 150.811 102.606 150.725 102.52C150.668 102.463 150.601 102.417 150.526 102.386C150.451 102.355 150.371 102.339 150.29 102.339C150.21 102.339 150.13 102.355 150.055 102.386C149.98 102.417 149.913 102.463 149.856 102.52Z" fill="#B7D3F3"/>
<path d="M153.712 106.389C153.627 106.475 153.568 106.585 153.544 106.704C153.521 106.823 153.533 106.947 153.58 107.059C153.626 107.172 153.705 107.268 153.806 107.335C153.907 107.403 154.026 107.439 154.147 107.439C154.269 107.439 154.388 107.403 154.489 107.335C154.59 107.268 154.669 107.172 154.715 107.059C154.762 106.947 154.774 106.823 154.75 106.704C154.727 106.585 154.668 106.475 154.582 106.389C154.525 106.332 154.458 106.286 154.383 106.255C154.308 106.224 154.228 106.208 154.147 106.208C154.067 106.208 153.986 106.224 153.912 106.255C153.837 106.286 153.769 106.332 153.712 106.389Z" fill="#B7D3F3"/>
<path d="M159.329 97.073C159.329 96.9515 159.365 96.8326 159.433 96.7315C159.5 96.6304 159.596 96.5516 159.709 96.5051C159.821 96.4586 159.944 96.4464 160.064 96.4701C160.183 96.4938 160.293 96.5524 160.378 96.6384C160.464 96.7243 160.523 96.8339 160.547 96.9531C160.57 97.0723 160.558 97.1959 160.512 97.3083C160.465 97.4206 160.386 97.5166 160.285 97.5841C160.184 97.6517 160.065 97.6878 159.944 97.6878C159.863 97.688 159.783 97.6723 159.708 97.6415C159.634 97.6107 159.566 97.5654 159.509 97.5083C159.451 97.4511 159.406 97.3833 159.375 97.3086C159.345 97.2339 159.329 97.1538 159.329 97.073Z" fill="#B7D3F3"/>
<path d="M160.029 89.3997H159.861V97.0741H160.029V89.3997Z" fill="#B7D3F3"/>
<path d="M163.764 93.6352L159.696 96.8307L160.007 97.2259L164.075 94.0305L163.764 93.6352Z" fill="#B7D3F3"/>
<path d="M114.811 163.551C114.811 163.551 118.078 159.741 115.005 157.321C115.005 157.321 112.766 155.967 110.945 156.074C110.945 156.074 113.532 160.412 112.695 160.843C111.858 161.274 110.16 155.803 110.16 155.803C110.16 155.803 105.067 155.308 103.427 156.097C103.427 156.097 107.783 159.66 106.864 159.872C105.946 160.085 101.243 156.586 101.243 156.586C101.243 156.586 96.5012 157.394 96.7544 160.286C97.0077 163.178 98.6411 164.073 99.3583 163.996C100.075 163.918 104.278 162.316 104.369 162.903C104.46 163.491 101.933 165.416 100.162 165.505C100.162 165.505 103.505 169.192 105.728 168.127C107.951 167.061 108.138 165.376 109.522 164.744C110.907 164.112 112.092 164.113 111.519 164.757C110.947 165.401 108.44 166.031 107.653 167.431C106.866 168.83 106.149 169.777 108.448 169.431C110.746 169.085 114.485 167.404 114.647 165.478L114.811 163.551Z" fill="#82B378"/>
<path d="M99.0806 160.364C99.0806 160.364 111.961 159.867 114.804 163.549C114.804 163.549 115.434 165.434 117.369 167.149L117.671 167.97C117.671 167.97 115.44 165.618 114.64 165.477C114.64 165.477 115.889 160.913 99.0806 160.364Z" fill="#82B378"/>
<path d="M117.37 167.15C117.37 167.15 120.134 169.195 120.325 172.847L119.825 172.893C119.825 172.893 118.941 169.116 117.346 167.639C115.752 166.162 117.37 167.15 117.37 167.15Z" fill="#82B378"/>
<path d="M126.216 158.759C126.216 158.759 121.02 155.86 123.446 151.901C123.446 151.901 125.379 149.475 127.463 148.852C127.463 148.852 126.355 154.74 127.463 154.879C128.57 155.019 128.236 148.228 128.236 148.228C128.236 148.228 133.708 145.595 135.856 145.804C135.856 145.804 132.462 151.555 133.569 151.41C134.677 151.265 138.489 145.452 138.489 145.452C138.489 145.452 144.095 144.412 145.001 147.737C145.908 151.062 144.447 152.726 143.615 152.933C142.784 153.14 137.449 153.072 137.588 153.764C137.727 154.456 141.329 155.566 143.339 154.943C143.339 154.943 141.122 160.416 138.212 160.139C135.303 159.863 134.4 158.061 132.606 157.922C130.813 157.783 129.488 158.268 130.389 158.753C131.29 159.239 134.339 158.912 135.792 160.149C137.246 161.386 138.425 162.148 135.723 162.703C133.02 163.257 128.172 162.91 127.202 160.831L126.216 158.759Z" fill="#A8D29F"/>
<path d="M142.438 148.782C142.438 148.782 127.888 153.493 126.225 158.759C126.225 158.759 126.295 161.115 124.841 163.816V164.856C124.841 164.856 126.365 161.322 127.196 160.837C127.196 160.837 123.94 156.265 142.438 148.782Z" fill="#82B378"/>
<path d="M124.842 163.815C124.842 163.815 122.598 167.223 123.876 171.37L124.456 171.215C124.456 171.215 123.895 166.647 125.069 164.349C126.242 162.05 124.842 163.815 124.842 163.815Z" fill="#82B378"/>
<path d="M117.959 154.746C117.959 154.746 124.808 150.911 121.613 145.705C121.613 145.705 119.055 142.508 116.316 141.686C116.316 141.686 117.775 149.45 116.316 149.631C114.857 149.813 115.311 140.865 115.311 140.865C115.311 140.865 108.097 137.385 105.259 137.667C105.259 137.667 109.734 145.249 108.272 145.065C106.811 144.882 101.789 137.211 101.789 137.211C101.789 137.211 94.3909 135.841 93.204 140.225C92.0171 144.609 93.9347 146.797 95.0308 147.074C96.1269 147.35 103.15 147.267 102.976 148.17C102.802 149.073 98.0445 150.546 95.3962 149.716C95.3962 149.716 98.317 156.931 102.162 156.565C106.007 156.2 107.188 153.826 109.558 153.642C111.928 153.459 113.668 154.099 112.481 154.738C111.294 155.378 107.275 154.947 105.357 156.579C103.44 158.21 101.887 159.214 105.448 159.944C109.009 160.675 115.404 160.219 116.683 157.478L117.959 154.746Z" fill="#A8D29F"/>
<path d="M96.5898 141.593C96.5898 141.593 115.768 147.802 117.96 154.738C117.96 154.738 117.869 157.843 119.787 161.405V162.774C119.787 162.774 117.776 158.117 116.682 157.477C116.682 157.483 120.974 151.456 96.5898 141.593Z" fill="#82B378"/>
<path d="M119.786 161.405C119.786 161.405 122.744 165.896 121.058 171.363L120.296 171.169C120.296 171.169 121.035 165.148 119.488 162.119C117.942 159.089 119.786 161.405 119.786 161.405Z" fill="#82B378"/>
<path d="M118.189 183.226C114.63 183.225 111.218 181.811 108.702 179.295C106.186 176.779 104.773 173.366 104.773 169.808H131.606C131.606 173.367 130.192 176.78 127.676 179.296C125.16 181.812 121.747 183.226 118.189 183.226Z" fill="#8CB4F4"/>
<path d="M122.157 183.121C121.604 183.191 121.047 183.226 120.49 183.226C116.932 183.225 113.519 181.811 111.003 179.295C108.487 176.779 107.073 173.367 107.073 169.808H110.407C110.407 173.078 111.601 176.235 113.765 178.686C115.928 181.138 118.912 182.715 122.157 183.121Z" fill="#99C3FF"/>
<path d="M104.587 183.911H131.791C131.791 183.472 131.617 183.051 131.307 182.74C130.996 182.43 130.576 182.255 130.137 182.254H106.242C105.803 182.255 105.382 182.43 105.071 182.74C104.761 183.051 104.587 183.472 104.587 183.911Z" fill="#8CB4F4"/>
<path d="M104.466 170.219H132.047V169.808H104.466V170.219Z" fill="#99C3FF"/>
<path d="M77.1305 259.926H135.459V211.83H77.1305V259.926Z" fill="#C3DAFC"/>
<path d="M106.293 259.926H164.622V211.83H106.293V259.926Z" fill="#D4E4F8"/>
<path d="M77.165 247.729H86.4071L85.5933 245.127L86.4071 243.269H77.165V247.729Z" fill="#2A4E96"/>
<path d="M106.294 226.715H115.538L114.722 224.113L115.538 222.256H106.294V226.715Z" fill="#618DC1"/>
<path d="M106.294 222.256H97.0518L97.8656 224.858L97.0518 226.715H106.294V222.256Z" fill="#2A4E96"/>
<path d="M164.624 248.246H155.382L156.196 250.846L155.382 252.705H164.624V248.246Z" fill="#618DC1"/>
<path d="M160.804 215.091H144.02V221.621H160.804V215.091Z" fill="white"/>
<path d="M142.597 183.935H108.799V211.804H142.597V183.935Z" fill="#ED823A"/>
<path d="M125.699 183.935H91.9009V211.804H125.699V183.935Z" fill="#FF9E55"/>
<path d="M142.576 204.738H137.22L137.691 203.23L137.22 202.153H142.576V204.738Z" fill="#DD732C"/>
<path d="M125.697 192.56H120.341L120.812 191.052L120.341 189.976H125.697V192.56Z" fill="#FFB27D"/>
<path d="M125.697 189.976H131.052L130.58 191.483L131.052 192.56H125.697V189.976Z" fill="#DD732C"/>
<path d="M91.9009 205.033H97.2555L96.7839 206.541L97.2555 207.618H91.9009V205.033Z" fill="#FFB27D"/>
<path d="M179.089 226.712H138.811V259.923H179.089V226.712Z" fill="#ED823A"/>
<path d="M158.95 226.712H118.672V259.923H158.95V226.712Z" fill="#FF9E55"/>
<path d="M179.066 251.502H172.685L173.245 249.706L172.685 248.422H179.066V251.502Z" fill="#DD732C"/>
<path d="M158.949 236.99H152.568L153.13 235.195L152.568 233.911H158.949V236.99Z" fill="#FFB27D"/>
<path d="M158.949 233.911H165.332L164.77 235.707L165.332 236.99H158.949V233.911Z" fill="#DD732C"/>
<path d="M118.67 251.861H125.053L124.49 253.657L125.053 254.94H118.67V251.861Z" fill="#FFB27D"/>
<path d="M236.503 157.657H270.177V129.89H236.503V157.657Z" fill="#D8702A"/>
<path d="M253.338 157.657H287.012V129.89H253.338V157.657Z" fill="#FF9E55"/>
<path d="M236.521 150.617H241.859L241.387 149.115L241.859 148.042H236.521V150.617Z" fill="#C15E1B"/>
<path d="M253.339 138.485H258.675L258.205 136.983L258.675 135.911H253.339V138.485Z" fill="#FFB27D"/>
<path d="M253.338 135.911H248.002L248.472 137.413L248.002 138.485H253.338V135.911Z" fill="#C15E1B"/>
<path d="M287.013 150.915H281.678L282.147 152.417L281.678 153.49H287.013V150.915Z" fill="#FFB27D"/>
<path d="M284.808 131.778H275.117V135.547H284.808V131.778Z" fill="white"/>
<path d="M271.127 156.478C271.945 155.946 273.797 154.78 273.88 155.059C273.94 155.252 273.832 155.592 273.601 155.934C274.709 155.569 275.826 155.354 278.434 155.95C278.693 156.007 278.938 156.116 279.154 156.271C279.37 156.425 279.553 156.622 279.691 156.849C279.942 157.274 280.021 157.798 279.337 158.188C277.966 158.962 278.37 158.486 276.468 159.625C274.566 160.763 272.275 160.978 270.949 160.083L269.136 159.708L269.026 156.698C269.026 156.698 270.064 156.613 271.127 156.478Z" fill="#FFB27D"/>
<path d="M223.928 125.486C223.928 125.486 229.099 129.714 234.094 126.604C234.094 126.604 234.728 123.582 234.357 121.512C234.31 121.259 234.268 121.011 234.227 120.776C233.819 118.444 233.647 117.124 233.647 117.124C233.382 117.066 224.776 115.284 224.834 115.556C226.159 121.823 223.928 125.486 223.928 125.486Z" fill="#FFB27D"/>
<path d="M225.917 116.903C226.955 118.187 230.124 120.487 234.229 120.77C233.822 118.438 233.649 117.118 233.649 117.118C233.414 117.102 225.608 116.526 225.917 116.903Z" fill="#ED975D"/>
<path d="M235.279 116.559C235.279 116.559 226.688 120.357 224.405 114.97C222.122 109.582 219.476 106.447 224.866 103.795C230.255 101.142 232.198 102.743 233.398 104.355C234.599 105.967 237.456 115.439 235.279 116.559Z" fill="#FFB27D"/>
<path d="M224.997 116.451C224.889 116.554 223.064 117.51 218.038 110.901C217.249 109.863 216.393 107.458 217.322 105.019C218.252 102.579 222.681 99.9657 226.487 98.4773C228.021 97.8939 229.7 97.816 231.281 98.255C231.663 98.3577 232.021 98.5353 232.333 98.7775C232.646 99.0198 232.907 99.3217 233.102 99.6658C233.297 100.01 233.421 100.389 233.468 100.782C233.515 101.175 233.483 101.573 233.375 101.953C232.656 104.466 230.862 106.012 228.608 105.954C227.094 105.908 227.191 109.001 227.218 109.737C227.245 110.474 227.195 111.102 225.285 110.797C223.651 110.534 224.573 112.691 225.122 113.662C225.4 114.137 225.534 114.683 225.509 115.233C225.502 115.69 225.318 116.126 224.997 116.451Z" fill="#2A4E96"/>
<path d="M211.853 259.925H206.315C205.155 259.925 203.866 258.765 203.543 256.639C203.22 254.512 200.837 253.353 200.317 251.613C199.797 249.873 202.443 247.418 202.443 247.418L202.886 246.85L203.346 246.258L207.73 247.289C207.73 247.289 207.838 248.334 207.906 249.664C207.964 250.678 207.97 251.694 207.925 252.709C207.796 255.029 208.575 257.542 210.632 257.984C212.688 258.427 211.853 259.925 211.853 259.925Z" fill="#2C3A64"/>
<path d="M250.399 259.924H235.721C235.614 259.906 235.51 259.876 235.41 259.835C234.429 259.344 234.737 255.582 234.855 254.434C234.878 254.217 234.893 254.092 234.893 254.092C234.893 254.092 240.055 249.965 240.764 253.125C240.787 253.224 240.812 253.321 240.84 253.415C241.736 256.373 245.742 257.716 248.054 258.091C249.823 258.379 250.281 259.413 250.399 259.924Z" fill="#2C3A64"/>
<path d="M247.439 175.293C247.439 175.293 246.656 185.07 245.734 196.825C244.483 212.792 242.978 232.406 242.835 236.121C242.577 242.574 241.543 252.894 241.543 252.894C241.543 252.894 239.094 255.345 234.198 254.311C234.198 254.311 229.827 239.579 228.58 223.991L228.522 223.218C227.362 207.349 225.555 173.924 225.555 173.924L247.439 175.293Z" fill="#FF9E55"/>
<path d="M244.523 174.641C244.523 174.641 245.03 180.742 242.204 192.19C240.133 200.589 228.566 223.991 228.566 223.991L228.508 223.218C227.348 207.349 225.541 173.924 225.541 173.924L244.523 174.641Z" fill="#ED823A"/>
<path d="M244.522 174.641C244.522 174.641 229.734 211.86 220.445 228.51C211.157 245.16 208.253 249.797 208.253 249.797C208.253 249.797 202.932 247.671 202.454 246.217C202.454 246.217 206.007 214.087 212.228 206.254C215.742 201.829 219.871 188.547 220.065 183.904C220.258 179.261 221.323 170.067 221.323 170.067L244.522 174.641Z" fill="#FF9E55"/>
<path d="M245.263 173.937C243.194 174.063 221.366 173.237 221.36 172.018C221.341 167.776 220.454 160.914 219.348 152.578C219.144 151.024 218.984 149.484 218.866 147.958C218.558 144.218 218.551 140.459 218.843 136.717C219.394 130.305 222.116 125.134 224.896 122.724C225.259 122.418 226.607 123.439 228.862 124.355C230.948 125.198 232.597 124.593 234.468 124.069L236.863 126.178C238.858 128.036 240.993 130.868 242.033 133.42C242.036 133.42 245.448 173.924 245.263 173.937Z" fill="#2A4E96"/>
<path d="M242.037 133.42L236.076 134.806L227.87 157.036C227.295 158.595 226.257 159.939 224.894 160.889C223.531 161.838 221.91 162.347 220.25 162.346L220.969 173.315L247.44 175.3L242.037 133.42Z" fill="#FF9E55"/>
<path d="M270.627 158.162C270.821 156.422 269.926 156.1 269.926 156.1C269.926 156.1 252.352 152.208 250.865 151.677C249.379 151.145 237.032 137.266 237.032 137.266C237.032 137.266 232.317 131.515 228.233 132.586C224.682 133.517 223.207 136.2 222.637 138.789C222.312 140.299 222.449 141.872 223.03 143.303C223.612 144.734 224.611 145.956 225.898 146.811C231.795 150.749 243.603 158.516 246.419 159.461C252.684 161.564 269.779 160.515 269.779 160.515C270.239 159.806 270.529 159.001 270.627 158.162Z" fill="#2A4E96"/>
<path d="M229.896 128.369C228.508 127.078 224.056 123.537 224.056 123.537L224.895 122.723C225.488 122.597 230.089 126.057 231.62 127.422C233.464 129.065 238.579 134.221 238.579 134.221L236.066 134.801C236.066 134.801 231.529 129.896 229.896 128.369Z" fill="#ED823A"/>
<path d="M102.151 0.00183105V23.3052C102.151 23.4386 102.151 23.57 102.151 23.7034C102.126 26.1507 101.9 28.0818 101.62 28.0818H101.542C101.285 28.0818 101.069 26.4271 101.019 24.2389C101.019 24.0559 101.019 23.8683 101.019 23.6763V23.6338C101.019 23.5255 101.019 23.4134 101.019 23.3052V0.0230922C101.39 0.0114937 101.771 0.00569723 102.151 0.00183105Z" fill="#9FC1F4"/>
<path d="M101.58 20.2563C90.8537 20.2563 82.1567 29.452 82.1567 40.7953H121.012C121.002 29.452 112.303 20.2563 101.58 20.2563Z" fill="#FF9843"/>
<path d="M103.128 20.5028C102.568 20.3773 101.996 20.3125 101.422 20.3095C94.4315 20.3095 88.7656 29.4762 88.7656 40.7847H92.1775C92.1775 30.4195 96.9445 21.8502 103.128 20.5028Z" fill="#FFC48A"/>
</svg>
