<svg width="20" height="20" viewBox="0 0 20 20" fill="none" xmlns="http://www.w3.org/2000/svg">
<path d="M13.9009 0H3.8349C3.15902 0 2.60864 0.55076 2.60864 1.22651V18.7733C2.60864 19.45 3.15902 20 3.8349 20H16.1649C16.8414 20 17.3912 19.45 17.3912 18.7733V3.79246L13.9009 0ZM14.1904 1.83533L15.7202 3.49798H14.1904V1.83533ZM16.3613 18.7733C16.3613 18.8814 16.2729 18.9701 16.1643 18.9701H3.8349C3.72653 18.9701 3.63859 18.8814 3.63859 18.7733V1.22651C3.63859 1.11822 3.72653 1.03046 3.8349 1.03046H13.1599V4.01317C13.1599 4.29715 13.3912 4.52738 13.6754 4.52738H16.3613V18.7733ZM5.45543 5.47785H14.2014C14.4144 5.47785 14.5872 5.65066 14.5872 5.86371C14.5872 6.07676 14.4144 6.24957 14.2014 6.24957H5.45543C5.24242 6.24957 5.06957 6.07676 5.06957 5.86371C5.06957 5.6507 5.24242 5.47785 5.45543 5.47785ZM14.5872 8.45669C14.5872 8.6697 14.4144 8.84255 14.2014 8.84255H5.45543C5.24242 8.84255 5.06957 8.66974 5.06957 8.45669C5.06957 8.24364 5.24242 8.07083 5.45543 8.07083H14.2014C14.4144 8.07083 14.5872 8.24368 14.5872 8.45669ZM14.5872 10.9648C14.5872 11.1778 14.4144 11.3506 14.2014 11.3506H5.45543C5.24242 11.3506 5.06957 11.1778 5.06957 10.9648C5.06957 10.7517 5.24242 10.5789 5.45543 10.5789H14.2014C14.4144 10.5789 14.5872 10.7517 14.5872 10.9648ZM14.5872 13.5155C14.5872 13.7286 14.4144 13.9014 14.2014 13.9014H5.45543C5.24242 13.9014 5.06957 13.7286 5.06957 13.5155C5.06957 13.3025 5.24242 13.1297 5.45543 13.1297H14.2014C14.4144 13.1297 14.5872 13.3025 14.5872 13.5155Z" fill="#373737"/>
</svg>
