<svg width="20" height="20" viewBox="0 0 20 20" fill="none" xmlns="http://www.w3.org/2000/svg">
<g clip-path="url(#clip0)">
<path d="M4.58354 10.8333C4.47521 10.8333 4.36854 10.7908 4.28854 10.7116L0.121875 6.54494C-0.040625 6.38244 -0.040625 6.11827 0.121875 5.95577L4.28854 1.7891C4.40854 1.6691 4.58687 1.63327 4.74271 1.69827C4.89854 1.76243 5.00021 1.91493 5.00021 2.08327V4.1666H13.3335C13.7927 4.1666 14.1669 4.54077 14.1669 4.99994V7.49994C14.1669 7.95911 13.7927 8.33328 13.3335 8.33328H5.00021V10.4166C5.00021 10.5849 4.89854 10.7374 4.74271 10.8016C4.69104 10.8233 4.63687 10.8333 4.58354 10.8333ZM1.00604 6.24994L4.16687 9.41078V7.91661C4.16687 7.68661 4.35354 7.49994 4.58354 7.49994H13.3335V4.99994H4.58354C4.35354 4.99994 4.16687 4.81327 4.16687 4.58327V3.0891L1.00604 6.24994Z" fill="#1452F5"/>
<path d="M15.4168 18.3334C15.3635 18.3334 15.3093 18.3234 15.2577 18.3017C15.1018 18.2376 15.0002 18.0851 15.0002 17.9167V15.8334H6.66683C6.20766 15.8334 5.8335 15.4592 5.8335 15.0001V12.5001C5.8335 12.0409 6.20766 11.6667 6.66683 11.6667H15.0002V9.58341C15.0002 9.41508 15.1018 9.26258 15.2577 9.19842C15.4143 9.13425 15.5927 9.16925 15.7118 9.28841L19.8785 13.4551C20.041 13.6176 20.041 13.8817 19.8785 14.0442L15.7118 18.2109C15.6318 18.2909 15.5252 18.3334 15.4168 18.3334ZM6.66683 12.5001V15.0001H15.4168C15.6468 15.0001 15.8335 15.1867 15.8335 15.4167V16.9109L18.9943 13.7501L15.8335 10.5892V12.0834C15.8335 12.3134 15.6468 12.5001 15.4168 12.5001H6.66683Z" fill="#1452F5"/>
</g>
<defs>
<clipPath id="clip0">
<rect width="20" height="20" fill="white"/>
</clipPath>
</defs>
</svg>
