<svg width="20" height="20" viewBox="0 0 20 20" fill="none" xmlns="http://www.w3.org/2000/svg">
<g clip-path="url(#clip0)">
<path d="M3.61988 8.43739C3.86355 8.68106 4.26008 8.68106 4.50375 8.43739L5.3118 7.62935C5.55547 7.38567 5.55547 6.98915 5.3118 6.74548L4.50375 5.93739H15.6243C16.6582 5.93739 17.4993 6.77853 17.4993 7.81239C17.4993 8.32935 17.9199 8.74989 18.4368 8.74989H19.0618C19.5787 8.74989 19.9993 8.32935 19.9993 7.81239C19.9993 5.40001 18.0367 3.43739 15.6243 3.43739H4.50375L5.3118 2.62935C5.55547 2.38567 5.55547 1.98915 5.3118 1.74548L4.50375 0.937393C4.26008 0.693721 3.86355 0.693721 3.61988 0.937393L0.0908203 4.46646C-0.03125 4.58849 -0.03125 4.78634 0.0908203 4.90837L3.61988 8.43739ZM4.0618 1.37935L4.86988 2.18739L3.52832 3.52896C3.33199 3.72524 3.47129 4.06239 3.7493 4.06239H15.6243C17.6921 4.06239 19.3743 5.74462 19.3743 7.81239C19.3743 7.9847 19.2341 8.12489 19.0618 8.12489H18.4368C18.2645 8.12489 18.1243 7.9847 18.1243 7.81239C18.1243 6.43388 17.0028 5.31239 15.6243 5.31239H3.7493C3.47187 5.31239 3.3316 5.64915 3.52832 5.84587L4.86988 7.18739L4.0618 7.99548L0.75375 4.68739L4.0618 1.37935Z" fill="#373737"/>
<path d="M19.9085 15.0916L16.3794 11.5625C16.1358 11.3189 15.7393 11.3189 15.4955 11.5625L14.6875 12.3706C14.4432 12.6148 14.4432 13.0102 14.6875 13.2545L15.4956 14.0625H4.375C3.34113 14.0625 2.5 13.2214 2.5 12.1875C2.5 11.6705 2.07945 11.25 1.5625 11.25H0.9375C0.420547 11.25 0 11.6705 0 12.1875C0 14.5999 1.96262 16.5625 4.375 16.5625H15.4956L14.6875 17.3705C14.4432 17.6148 14.4432 18.0102 14.6875 18.2545L15.4956 19.0626C15.7393 19.3062 16.1357 19.3062 16.3795 19.0625L19.9085 15.5335C20.0305 15.4114 20.0305 15.2136 19.9085 15.0916V15.0916ZM15.9375 18.6206L15.1295 17.8125L16.471 16.471C16.6675 16.2745 16.5277 15.9375 16.25 15.9375H4.375C2.30723 15.9375 0.625 14.2553 0.625 12.1875C0.625 12.0152 0.765195 11.875 0.9375 11.875H1.5625C1.7348 11.875 1.875 12.0152 1.875 12.1875C1.875 13.566 2.99648 14.6875 4.375 14.6875H16.25C16.5279 14.6875 16.6673 14.3504 16.471 14.154L15.1295 12.8125L15.9375 12.0045L19.2456 15.3125L15.9375 18.6206Z" fill="#373737"/>
</g>
<defs>
<clipPath id="clip0">
<rect width="20" height="20" fill="white"/>
</clipPath>
</defs>
</svg>
