<svg width="512" height="512" viewBox="0 0 512 512" fill="none" xmlns="http://www.w3.org/2000/svg">
<path d="M478.4 153.401C475.999 150.7 472.7 148.9 469.1 148.3L424.999 142.301L380.9 136H45C32.701 136 21.301 141.099 13.2 149.2C5.099 157.301 0 168.701 0 181V451C0 463.299 5.099 474.699 13.2 482.8C21.301 490.901 32.701 496 45 496H437C449.299 496 460.699 490.901 468.8 482.8C476.901 474.699 482 463.299 482 451V163.299C482 159.401 480.5 156.099 478.4 153.401Z" fill="#F7F7F7"/>
<path d="M482 163.299V451C482 463.299 476.901 474.699 468.8 482.8C460.699 490.901 449.299 496 437 496H242V136H380.9L424.999 142.301L469.1 148.3C472.7 148.901 475.999 150.701 478.4 153.401C480.5 156.099 482 159.401 482 163.299Z" fill="#DDDCDC"/>
<path d="M165 301C165 325.901 144.901 346 120 346C95.099 346 75 325.901 75 301C75 276.099 95.099 256 120 256C144.901 256 165 276.099 165 301Z" fill="#1452F5"/>
<path d="M180 406V421C180 429.401 173.401 436 165 436H75C66.599 436 60 429.401 60 421V409.3C60 379.6 80.4 351.701 109.799 346.901C113.401 346.3 116.7 346 120 346C152.999 346 180 373.001 180 406Z" fill="#1452F5"/>
<path d="M347 316C355.284 316 362 309.284 362 301C362 292.716 355.284 286 347 286C338.716 286 332 292.716 332 301C332 309.284 338.716 316 347 316Z" fill="#989898"/>
<path d="M407 316C415.284 316 422 309.284 422 301C422 292.716 415.284 286 407 286C398.716 286 392 292.716 392 301C392 309.284 398.716 316 407 316Z" fill="#989898"/>
<path d="M287 316C295.284 316 302 309.284 302 301C302 292.716 295.284 286 287 286C278.716 286 272 292.716 272 301C272 309.284 278.716 316 287 316Z" fill="#989898"/>
<path d="M407 376H287C278.709 376 272 369.291 272 361C272 352.709 278.709 346 287 346H407C415.291 346 422 352.709 422 361C422 369.291 415.291 376 407 376Z" fill="#989898"/>
<path d="M422 421C422 429.291 415.291 436 407 436H287C278.709 436 272 429.291 272 421C272 412.709 278.709 406 287 406H407C415.291 406 422 412.709 422 421Z" fill="#989898"/>
<path d="M392 16C325.699 16 272 69.699 272 136C272 202.301 325.699 256 392 256C458.301 256 512 202.301 512 136C512 69.699 458.301 16 392 16Z" fill="#93CE12"/>
<path d="M447.499 116.499L392 172L387.499 176.499C384.8 179.5 380.9 181 377 181C373.1 181 369.2 179.5 366.501 176.499L336.501 146.499C330.501 140.799 330.501 131.201 336.501 125.5C342.201 119.5 351.799 119.5 357.5 125.5L377 144.699L392 129.699L426.501 95.5C432.201 89.5 441.799 89.5 447.5 95.5C453.5 101.201 453.5 110.799 447.499 116.499Z" fill="#E7EEFE"/>
</svg>
