<svg width="10" height="8" viewBox="0 0 10 8" fill="none" xmlns="http://www.w3.org/2000/svg">
<path d="M9.29951 0.846284L3.54159 6.60378C3.50288 6.64265 3.45688 6.67349 3.40622 6.69453C3.35556 6.71557 3.30124 6.7264 3.24639 6.7264C3.19153 6.7264 3.13721 6.71557 3.08656 6.69453C3.0359 6.67349 2.98989 6.64265 2.95118 6.60378L0.724512 4.37503C0.685799 4.33617 0.639794 4.30533 0.589134 4.28429C0.538475 4.26325 0.484159 4.25241 0.429303 4.25241C0.374448 4.25241 0.320132 4.26325 0.269472 4.28429C0.218813 4.30533 0.172807 4.33617 0.134095 4.37503C0.0952298 4.41375 0.0643912 4.45975 0.0433489 4.51041C0.0223065 4.56107 0.0114746 4.61539 0.0114746 4.67024C0.0114746 4.7251 0.0223065 4.77941 0.0433489 4.83007C0.0643912 4.88073 0.0952298 4.92674 0.134095 4.96545L2.36159 7.19253C2.59657 7.42708 2.91501 7.5588 3.24701 7.5588C3.57901 7.5588 3.89745 7.42708 4.13243 7.19253L9.88993 1.43628C9.92873 1.39758 9.95952 1.3516 9.98052 1.30098C10.0015 1.25036 10.0123 1.19609 10.0123 1.14128C10.0123 1.08648 10.0015 1.03221 9.98052 0.981589C9.95952 0.930968 9.92873 0.884989 9.88993 0.846284C9.85122 0.807419 9.80521 0.77658 9.75455 0.755538C9.70389 0.734495 9.64957 0.723663 9.59472 0.723663C9.53986 0.723663 9.48555 0.734495 9.43489 0.755538C9.38423 0.77658 9.33822 0.807419 9.29951 0.846284Z" fill="#1452F5"/>
</svg>
