<svg width="32" height="32" viewBox="0 0 32 32" fill="none" xmlns="http://www.w3.org/2000/svg">
<path d="M11.0462 15.9999C11.0462 17.777 11.7632 19.4813 13.0393 20.738C14.3155 21.9947 16.0464 22.7008 17.8513 22.7011V30.2401C17.8514 30.4269 17.7791 30.6067 17.6491 30.7429C17.5192 30.879 17.3414 30.9612 17.152 30.9727C16.85 30.9908 16.5433 30.9999 16.2333 30.9999C12.1927 30.9994 8.31781 29.4187 5.46102 26.6053C2.60422 23.7919 0.999543 19.9765 1 15.9982C1.00046 12.02 2.60601 8.2049 5.46345 5.39218C8.32089 2.57947 12.1962 0.99955 16.2367 1C16.5433 1 16.85 1.00905 17.1554 1.02713C17.3448 1.03865 17.5226 1.12086 17.6526 1.257C17.7825 1.39314 17.8548 1.57295 17.8547 1.75978V9.29875C16.9608 9.29846 16.0755 9.47157 15.2494 9.8082C14.4234 10.1448 13.6728 10.6384 13.0406 11.2607C12.4083 11.883 11.9067 12.6218 11.5646 13.435C11.2224 14.2482 11.0462 15.1197 11.0462 15.9999Z" fill="#1452F5"/>
<path d="M27.222 24.7056C27.315 24.5733 27.4069 24.4388 27.4964 24.3031C27.5833 24.1646 27.6283 24.0046 27.6262 23.8418V8.15673C27.6282 7.99433 27.5832 7.83473 27.4964 7.69657C27.4069 7.56089 27.315 7.42635 27.222 7.29294C26.8614 6.78416 26.1885 7.09734 26.1885 7.77571V24.224C26.1873 24.9023 26.8614 25.2155 27.222 24.7056Z" fill="#1452F5"/>
<path d="M29.5611 12.5322V19.4765C29.5611 20.3177 30.4143 20.4941 30.5946 19.6936C31.1351 17.2629 31.1351 14.7459 30.5946 12.3152C30.4143 11.5068 29.5611 11.6865 29.5611 12.5322Z" fill="#1452F5"/>
<path d="M22.8132 3.7338V28.2683C22.8132 28.8087 23.2668 29.1648 23.6583 28.9308L23.9271 28.7657C24.0321 28.6912 24.1167 28.5922 24.1735 28.4775C24.2302 28.3629 24.2572 28.2362 24.252 28.1088V3.89322C24.2572 3.76582 24.2302 3.63915 24.1735 3.52453C24.1167 3.40991 24.0321 3.31089 23.9271 3.23632C23.8386 3.17979 23.7479 3.12326 23.6583 3.07125C23.2668 2.83722 22.8132 3.19336 22.8132 3.7338Z" fill="#1452F5"/>
<path d="M19.4396 2.03234V29.9677C19.4396 30.42 19.768 30.7671 20.1286 30.6924L20.3996 30.6325C20.6786 30.5692 20.8796 30.2639 20.8796 29.9112V2.08887C20.8796 1.73612 20.6786 1.43085 20.3996 1.36753C20.3089 1.34605 20.2193 1.32683 20.1286 1.30761C19.768 1.23299 19.4396 1.57783 19.4396 2.03234Z" fill="#1452F5"/>
</svg>
