<svg width="20" height="20" viewBox="0 0 20 20" fill="none" xmlns="http://www.w3.org/2000/svg">
<path d="M11.421 15.4279C11.5222 15.3264 11.6076 15.2163 11.6818 15.1004L19.4328 7.34909C20.1886 6.5929 20.189 5.36606 19.4324 4.60951C18.6762 3.85296 17.4498 3.85296 16.6928 4.60951L10.0173 11.285L3.30702 4.57507C2.55083 3.81852 1.3247 3.81852 0.567432 4.57507C0.188618 4.95352 -7.05719e-05 5.44964 -7.05719e-05 5.94468C-7.05719e-05 6.43972 0.188618 6.9362 0.567432 7.31429L8.35428 15.1004C8.42854 15.2163 8.51391 15.3271 8.61507 15.4279C9.00178 15.8146 9.51117 16.0012 10.018 15.9919C10.5249 16.0012 11.034 15.8146 11.421 15.4279Z" fill="#373737"/>
</svg>
