<svg width="20" height="20" viewBox="0 0 20 20" fill="none" xmlns="http://www.w3.org/2000/svg">
<path d="M4.11592 8.80107L7.93759 12.6219C8.49311 13.1526 9.23182 13.4487 10.0001 13.4487C10.7684 13.4487 11.5071 13.1526 12.0626 12.6219L15.8843 8.80107C16.1187 8.56657 16.2505 8.24853 16.2505 7.9169C16.2505 7.58527 16.1187 7.26723 15.8843 7.03273C15.6498 6.79824 15.3317 6.6665 15.0001 6.6665C14.6685 6.6665 14.3504 6.79824 14.1159 7.03273L10.2943 10.8544C10.2161 10.9325 10.1102 10.9764 9.99967 10.9764C9.88919 10.9764 9.78322 10.9325 9.70509 10.8544L5.88426 7.03273C5.64976 6.79824 5.33171 6.6665 5.00009 6.6665C4.66846 6.6665 4.35042 6.79824 4.11592 7.03273C3.88143 7.26723 3.74969 7.58527 3.74969 7.9169C3.74969 8.24853 3.88143 8.56657 4.11592 8.80107Z" fill="#373737"/>
</svg>
