<svg width="15" height="15" viewBox="0 0 15 15" fill="none" xmlns="http://www.w3.org/2000/svg">
<path d="M7.5 0C3.3645 0 0 3.36455 0 7.50005C0 11.6355 3.3645 15 7.5 15C11.6355 15 15 11.6355 15 7.50005C15 3.36455 11.6355 0 7.5 0ZM7.5 13.6364C4.11636 13.6364 1.36364 10.8836 1.36364 7.50005C1.36364 4.11646 4.11636 1.36364 7.5 1.36364C10.8836 1.36364 13.6364 4.11646 13.6364 7.50005C13.6364 10.8836 10.8836 13.6364 7.5 13.6364Z" fill="#FC4C3C"/>
<path d="M7.49991 3.18164C6.99873 3.18164 6.591 3.58964 6.591 4.09114C6.591 4.59219 6.99873 4.99982 7.49991 4.99982C8.00109 4.99982 8.40882 4.59219 8.40882 4.09114C8.40882 3.58964 8.00109 3.18164 7.49991 3.18164Z" fill="#FC4C3C"/>
<path d="M7.49999 6.36377C7.12345 6.36377 6.81818 6.66904 6.81818 7.04559V11.1365C6.81818 11.513 7.12345 11.8183 7.49999 11.8183C7.87654 11.8183 8.18181 11.513 8.18181 11.1365V7.04559C8.18181 6.66904 7.87654 6.36377 7.49999 6.36377Z" fill="#FC4C3C"/>
</svg>
