<svg width="16" height="16" viewBox="0 0 16 16" fill="none" xmlns="http://www.w3.org/2000/svg">
<path d="M5.73333 9.41406L8.79267 12.4714C8.9196 12.5862 9.08582 12.6477 9.25689 12.6433C9.42797 12.6389 9.5908 12.5689 9.71169 12.4478C9.83257 12.3267 9.90223 12.1637 9.90626 11.9926C9.91029 11.8215 9.84838 11.6554 9.73333 11.5287L6.676 8.47139C6.55102 8.34637 6.48081 8.17683 6.48081 8.00006C6.48081 7.82328 6.55102 7.65374 6.676 7.52872L9.73333 4.47139C9.85834 4.3463 9.92853 4.17667 9.92847 3.99982C9.9284 3.82298 9.85809 3.6534 9.733 3.52839C9.6079 3.40339 9.43828 3.33319 9.26143 3.33326C9.08458 3.33332 8.915 3.40363 8.79 3.52872L5.73333 6.58606C5.35839 6.96111 5.14776 7.46973 5.14776 8.00006C5.14776 8.53039 5.35839 9.039 5.73333 9.41406Z" fill="#F58520"/>
</svg>
