<svg width="46" height="46" viewBox="0 0 46 46" fill="none" xmlns="http://www.w3.org/2000/svg">
<g clip-path="url(#clip0_1425_8219)">
<path d="M2.29412 14.4597C2.29412 14.4597 0 14.9088 0 17.1754C0 19.4419 0 31.0398 0 31.0398C0 31.0398 0.254729 28.2468 2.29412 28.2468H45.5L41.094 21.1076L45.5 14.4597H2.29412Z" fill="#F58520"/>
</g>
<path d="M8.79 25H10.05V19.57H10.07L13.57 25H15.17V17.92H13.91V23.18H13.89L10.46 17.92H8.79V25ZM16.749 25H21.619V23.86H18.009V21.94H21.259V20.8H18.009V19.06H21.439V17.92H16.749V25ZM24.1623 25H25.3223L26.9623 19.61H26.9823L28.6223 25H29.8223L31.8823 17.92H30.6023L29.2123 23.02H29.1923L27.6323 17.92H26.3923L24.8023 23.02H24.7823L23.4523 17.92H22.0723L24.1623 25Z" fill="white"/>
<defs>
<clipPath id="clip0_1425_8219">
<rect width="45.5" height="45.5" fill="white"/>
</clipPath>
</defs>
</svg>
