<svg xmlns="http://www.w3.org/2000/svg" width="40" height="40" fill="none" viewBox="0 0 40 40">
    <g fill="#1452F5" clip-path="url(#clip0)">
        <path d="M5.882 34.118c1.833 1.833 3.967 3.272 6.345 4.278 2.464 1.042 5.079 1.57 7.773 1.57s5.309-.528 7.773-1.57c2.377-1.006 4.512-2.445 6.345-4.278 1.833-1.833 3.272-3.968 4.278-6.345 1.042-2.464 1.57-5.079 1.57-7.773s-.528-5.31-1.57-7.773C37.39 9.85 35.95 7.715 34.118 5.882c-1.833-1.833-3.968-3.272-6.346-4.278C25.31.562 22.695.034 20 .034s-5.31.528-7.773 1.57C9.85 2.61 7.715 4.05 5.882 5.882 4.049 7.715 2.61 9.85 1.604 12.227.562 14.691.034 17.306.034 20s.528 5.31 1.57 7.773c1.006 2.378 2.445 4.512 4.278 6.345zM20 2.948c9.417 0 17.051 7.635 17.051 17.052S29.417 37.051 20 37.051c-9.417 0-17.051-7.634-17.051-17.05 0-9.418 7.634-17.052 17.05-17.052z"/>
        <path d="M20 40c-2.699 0-5.318-.528-7.786-1.572-2.382-1.008-4.52-2.45-6.356-4.285-1.836-1.836-3.278-3.974-4.285-6.356C.529 25.319 0 22.7 0 20s.53-5.318 1.573-7.786C2.58 9.833 4.022 7.695 5.858 5.86c1.836-1.836 3.974-3.278 6.356-4.285C14.682.53 17.301 0 20 0s5.318.53 7.786 1.573c2.382 1.007 4.52 2.45 6.356 4.285 1.836 1.836 3.278 3.974 4.285 6.356C39.471 14.683 40 17.302 40 20.001c0 2.698-.53 5.318-1.573 7.786-1.007 2.382-2.449 4.52-4.285 6.356-1.836 1.836-3.974 3.277-6.356 4.285-2.468 1.044-5.087 1.573-7.786 1.573zM20 .07c-2.69 0-5.3.527-7.76 1.568-2.373 1.004-4.504 2.44-6.334 4.27-1.83 1.83-3.266 3.96-4.27 6.335C.596 14.7.068 17.312.068 20c0 2.69.527 5.3 1.568 7.76 1.004 2.373 2.44 4.504 4.27 6.334 1.83 1.83 3.96 3.266 6.335 4.27 2.459 1.04 5.07 1.568 7.759 1.568 2.69 0 5.3-.527 7.76-1.568 2.373-1.004 4.504-2.44 6.334-4.27 1.83-1.83 3.266-3.961 4.27-6.335 1.04-2.459 1.568-5.07 1.568-7.759 0-2.69-.528-5.3-1.568-7.76-1.003-2.373-2.44-4.504-4.27-6.334-1.83-1.83-3.961-3.266-6.335-4.27C25.3.597 22.69.069 20 .069zm0 37.017c-4.564 0-8.854-1.777-12.081-5.004-3.227-3.227-5.004-7.517-5.004-12.081 0-4.564 1.777-8.854 5.004-12.081C11.146 4.693 15.436 2.916 20 2.916c4.564 0 8.854 1.777 12.081 5.004 3.227 3.227 5.004 7.517 5.004 12.081 0 4.564-1.777 8.854-5.004 12.081-3.227 3.227-7.517 5.004-12.081 5.004zm0-34.102c-4.546 0-8.819 1.77-12.033 4.984-3.214 3.214-4.984 7.488-4.984 12.033 0 4.546 1.77 8.819 4.984 12.033 3.214 3.214 7.487 4.984 12.033 4.984 4.546 0 8.819-1.77 12.033-4.984 3.214-3.214 4.984-7.488 4.984-12.033 0-4.546-1.77-8.819-4.984-12.033C28.819 4.754 24.545 2.984 20 2.984z"/>
        <path d="M15.58 27.27c.273.273.644.426 1.03.426.387 0 .757-.154 1.03-.427l12.478-12.477c.569-.569.569-1.492 0-2.06-.57-.57-1.492-.57-2.061 0L16.61 24.177l-4.668-4.668c-.569-.57-1.491-.57-2.06 0-.57.569-.57 1.492 0 2.06l5.698 5.7z"/>
        <path d="M16.61 27.73c-.398 0-.772-.155-1.054-.437l-5.698-5.698c-.582-.581-.582-1.528 0-2.11.281-.28.656-.436 1.054-.436.399 0 .773.155 1.055.437l4.644 4.644 11.422-11.423c.282-.282.656-.437 1.055-.437.398 0 .773.155 1.054.437.282.282.437.656.437 1.055 0 .398-.155.772-.437 1.054L17.665 27.293c-.281.282-.656.437-1.054.437zm-5.698-8.613c-.38 0-.737.148-1.006.417-.555.555-.555 1.458 0 2.013l5.698 5.698c.269.269.626.417 1.007.417.38 0 .737-.148 1.006-.417l12.477-12.477c.269-.269.417-.626.417-1.006s-.148-.738-.417-1.007c-.269-.269-.626-.417-1.006-.417s-.738.148-1.007.417l-11.47 11.47-4.692-4.691c-.27-.269-.627-.417-1.007-.417z"/>
    </g>
    <defs>
        <clipPath id="clip0">
            <path fill="#fff" d="M0 0H40V40H0z"/>
        </clipPath>
    </defs>
</svg>
