<svg xmlns="http://www.w3.org/2000/svg" width="40" height="40" fill="none" viewBox="0 0 40 40">
    <g fill="#1452F5" clip-path="url(#clip0)">
        <path d="M38.813 14.255l-4.917-4.104V4.329c0-.503-.44-.886-.95-.886h-7.157l-2.87-2.395c-1.69-1.398-4.14-1.398-5.83.01l-2.87 2.385H6.97c-.503 0-.95.374-.95.886v5.913l-4.826 4.013c-.202.173-.32.438-.311.703h.018v20.464C.902 37.944 2.931 40 5.444 40h29.11c2.522 0 4.542-2.066 4.542-4.58V14.959h.018c.019-.274-.091-.53-.301-.703zm-4.917-1.728l2.879 2.395-2.88 2.138v-4.533zM18.258 2.456c1.014-.841 2.486-.832 3.5.009l1.161.978h-5.84l1.179-.987zM7.848 5.27h24.22v13.151l-10.41 7.75c-.987.723-2.322.723-3.3 0L7.848 18.35V5.271zM6.02 12.61v4.377l-2.787-2.074L6.02 12.61zm31.257 22.803c.01 1.517-1.206 2.75-2.714 2.76H5.444c-1.508-.01-2.723-1.243-2.714-2.751V16.777l14.55 10.867c1.618 1.197 3.83 1.197 5.447 0l14.55-10.867v18.636z"/>
        <path d="M19.273 12.582h-4.936c-.502 0-.914.41-.914.913 0 .503.412.915.914.915h4.936c.502 0 .913-.412.913-.915 0-.502-.41-.913-.913-.913zM25.67 17.151H14.337c-.502 0-.914.412-.914.914 0 .503.412.914.914.914H25.67c.503 0 .914-.411.914-.914 0-.502-.411-.914-.914-.914z"/>
    </g>
    <defs>
        <clipPath id="clip0">
            <path fill="#fff" d="M0 0H40V40H0z"/>
        </clipPath>
    </defs>
</svg>
