<svg xmlns="http://www.w3.org/2000/svg" width="40" height="40" fill="none" viewBox="0 0 40 40">
    <g clip-path="url(#clip0)">
        <path fill="#1452F5" d="M35.063 10.073h-3.85V4.341c0-2.376-1.919-4.309-4.309-4.309-1.684 0-3.054 1.37-3.054 3.055 0 1.008-.26 2.005-.752 2.885C12.023 2.045-.181 10.793.002 22.574.285 41.311 25.309 46.62 33.316 29.99h1.747c2.72 0 4.937-2.2 4.937-4.937V15.01c0-2.728-2.206-4.938-4.937-4.938zM17.49 7.396c1.513 0 2.994.22 4.42.656l-2.59 4.532h-1.914V12.5c0-.647-.524-1.172-1.172-1.172h-3.848v-.083c0-.647-.525-1.172-1.172-1.172H8.887c2.506-1.741 5.476-2.677 8.604-2.677zm-2.427 6.276V26.39h-2.677V13.672h2.677zm-12.718 8.87c0-3.762 1.376-7.338 3.885-10.125h3.812v15.228H3.228c-.586-1.632-.882-3.346-.882-5.104zm23.639 12.537c-4.979 3.463-12.01 3.463-16.989 0-1.95-1.325-3.549-3.063-4.694-5.09h6.913c.647 0 1.172-.525 1.172-1.172v-.083h3.848c.55 0 1.01-.378 1.138-.888l.697.696c.932.933 2.172 1.447 3.49 1.447h9.12c-1.146 2.027-2.745 3.765-4.695 5.09zm11.671-10.027c0 1.435-1.162 2.593-2.593 2.593H21.56c-.682 0-1.35-.277-1.833-.76-.79-.788-1.8-1.799-2.32-2.319v-9.639h2.594c.42 0 .809-.225 1.017-.59l4.087-7.152c.712-1.247 1.088-2.664 1.088-4.098 0-.392.32-.711.712-.711 1.091 0 1.965.882 1.965 1.964v6.905c0 .647.525 1.172 1.172 1.172h5.02c1.431 0 2.594 1.156 2.594 2.594v10.04z"/>
    </g>
    <defs>
        <clipPath id="clip0">
            <path fill="#fff" d="M0 0H40V40H0z"/>
        </clipPath>
    </defs>
</svg>
