<svg xmlns="http://www.w3.org/2000/svg" width="100" height="100" fill="none" viewBox="0 0 100 100">
    <path fill="#1452F5" d="M50 46.886c-3.486 0-6.895 1.034-9.794 2.971-2.899 1.937-5.158 4.69-6.492 7.912-1.334 3.22-1.684 6.765-1.003 10.185.68 3.42 2.359 6.56 4.824 9.026 2.466 2.465 5.607 4.144 9.026 4.824 3.42.68 6.964.331 10.185-1.003 3.221-1.334 5.975-3.594 7.912-6.493 1.937-2.899 2.97-6.307 2.97-9.794-.005-4.673-1.864-9.154-5.169-12.459-3.304-3.304-7.785-5.163-12.459-5.169zM50 79.8c-3.023 0-5.978-.896-8.492-2.576-2.513-1.68-4.472-4.067-5.629-6.86-1.157-2.792-1.46-5.865-.87-8.83s2.046-5.689 4.183-7.826c2.138-2.138 4.861-3.594 7.826-4.184 2.965-.59 6.038-.287 8.831.87 2.793 1.157 5.18 3.116 6.86 5.63 1.68 2.513 2.576 5.468 2.576 8.491-.005 4.053-1.617 7.938-4.482 10.803-2.865 2.866-6.75 4.477-10.803 4.482z"/>
    <path fill="#1452F5" d="M50.583 68.75h-3.055c-.845 0-1.528.683-1.528 1.528 0 .844.683 1.528 1.528 1.528h1.528c0 .844.683 1.528 1.527 1.528.845 0 1.528-.684 1.528-1.528v-.282c1.775-.633 3.056-2.313 3.056-4.302 0-2.527-2.056-4.583-4.584-4.583-.843 0-1.527-.685-1.527-1.528s.684-1.528 1.527-1.528h3.056c.844 0 1.528-.683 1.528-1.527 0-.845-.684-1.528-1.528-1.528H52.11c0-.845-.683-1.528-1.528-1.528-.844 0-1.527.683-1.527 1.528v.281C47.28 57.442 46 59.122 46 61.111c0 2.528 2.056 4.583 4.583 4.583.843 0 1.528.685 1.528 1.528s-.685 1.528-1.528 1.528z"/>
    <path fill="#1452F5" d="M74.316 64.514c0-4.809-1.426-9.51-4.098-13.51-2.672-3.998-6.47-7.115-10.913-8.955-4.443-1.84-9.332-2.322-14.049-1.384-4.717.938-9.05 3.254-12.45 6.655-3.401 3.4-5.717 7.734-6.655 12.45-.938 4.717-.457 9.607 1.384 14.05 1.84 4.443 4.957 8.24 8.955 10.913 4 2.672 8.7 4.098 13.51 4.098 6.447-.008 12.628-2.572 17.186-7.13 4.559-4.559 7.123-10.74 7.13-17.187zm-8.889 13.77c-.22-.22-.518-.343-.829-.343-.31 0-.609.123-.828.343-.22.22-.344.518-.344.829 0 .31.124.609.343.828l.902.902c-3.724 3.36-8.49 5.338-13.5 5.602V85.16c0-.311-.123-.61-.342-.83-.22-.219-.518-.342-.829-.342-.31 0-.609.123-.829.343-.22.22-.343.518-.343.828v1.286c-5.009-.264-9.775-2.242-13.5-5.602l.902-.902c.11-.108.199-.237.259-.38.06-.143.09-.296.092-.45 0-.155-.03-.308-.089-.451-.059-.143-.145-.273-.255-.383-.11-.109-.24-.196-.382-.255-.143-.059-.296-.089-.451-.088-.155 0-.308.032-.45.092-.143.06-.272.148-.38.258l-.902.87c-3.377-3.725-5.358-8.507-5.603-13.529h1.287c.31 0 .608-.124.828-.343.22-.22.343-.518.343-.829 0-.31-.123-.609-.343-.829-.22-.22-.518-.343-.829-.343H28.07c.283-4.995 2.259-9.746 5.602-13.468l.902.916c.218.223.516.35.828.352.232.001.458-.067.651-.195s.344-.31.433-.524c.089-.214.112-.45.066-.677-.045-.227-.157-.435-.321-.599l-.902-.9c3.724-3.36 8.49-5.338 13.5-5.603v1.286c0 .311.123.61.342.829.22.22.518.343.829.343.31 0 .609-.123.829-.343.22-.22.343-.518.343-.829v-1.286c5.009.265 9.775 2.243 13.5 5.603l-.902.901c-.11.109-.198.238-.258.38-.06.143-.092.296-.092.451 0 .155.03.308.088.451.059.143.146.273.255.383.11.109.24.195.382.254.143.06.297.09.451.089.155 0 .308-.032.45-.092.143-.06.272-.148.381-.258l.901-.932c3.344 3.722 5.32 8.473 5.603 13.468h-1.286c-.311 0-.61.124-.83.343-.219.22-.342.518-.342.83 0 .31.123.608.343.828.22.22.518.343.829.343h1.285c-.245 5.022-2.225 9.804-5.602 13.53l-.901-.871z"/>
    <path fill="#989898" d="M89.219 86.367c-.35-2.484-.533-4.988-.547-7.496V61.945c.025-5.087-.96-10.13-2.898-14.833-1.938-4.704-4.79-8.977-8.391-12.57l-.02-.03c-1.327-1.323-2.911-2.36-4.655-3.047.718-.724 1.207-1.643 1.404-2.644.197-1 .093-2.036-.298-2.978-.39-.942-1.051-1.747-1.898-2.314-.848-.567-1.844-.87-2.864-.873h-5.04l9.85-17.254c.085-.147.136-.31.15-.478.015-.168-.007-.337-.065-.496-.057-.159-.148-.303-.267-.423-.118-.12-.262-.213-.42-.272-6.835-2.57-14.41-2.328-21.068.67l-1.227.558c-3.29 1.495-6.866 2.26-10.481 2.245-3.615-.016-7.183-.813-10.461-2.336l-2.375-1.102c-.223-.104-.472-.135-.713-.089-.241.047-.462.167-.63.345-.17.177-.278.402-.311.644-.034.241.01.487.126.703L35.3 22.656H32.33c-1.07.001-2.113.335-2.986.955-.872.62-1.53 1.495-1.883 2.505-.353 1.01-.384 2.105-.088 3.134.296 1.028.904 1.94 1.74 2.607-4.729 2.023-8.775 5.365-11.656 9.626-4.035 5.965-6.129 13.042-6.129 20.46v16.905c-.014 2.522-.197 5.04-.548 7.537-.203 1.45-.093 2.927.323 4.33.416 1.404 1.128 2.702 2.088 3.807.96 1.105 2.146 1.992 3.478 2.6 1.331.608 2.778.923 4.242.925h.003l58.178-.017c1.465.003 2.914-.31 4.248-.917 1.333-.606 2.52-1.493 3.481-2.6.961-1.106 1.672-2.406 2.086-3.812.414-1.405.52-2.883.312-4.334zM29.816 7.334c3.501 1.498 7.276 2.25 11.084 2.208 3.808-.042 7.566-.877 11.034-2.45l1.226-.555c5.656-2.549 12.05-2.93 17.969-1.073l-9.816 17.192H53.71l3.542-7.203c.137-.279.158-.601.058-.895-.1-.295-.314-.537-.593-.674-.279-.138-.6-.159-.895-.058-.294.1-.537.313-.674.592l-4.049 8.238h-4.63l-1.508-4.185c-.11-.286-.328-.517-.606-.644-.278-.128-.595-.141-.883-.038-.288.103-.524.315-.658.59-.134.275-.155.591-.06.882l1.224 3.395h-6.022l-8.14-15.322zM32.33 25h36.722c.752 0 1.472.298 2.003.83.531.53.83 1.25.83 2.002 0 .751-.299 1.471-.83 2.003-.531.53-1.251.829-2.003.829H32.33c-.751 0-1.472-.298-2.003-.83-.53-.53-.83-1.25-.83-2.002 0-.751.3-1.471.83-2.003.531-.53 1.252-.829 2.003-.829zm52.72 67.978c-.742.85-1.658 1.532-2.686 2-1.028.466-2.144.708-3.273.708l-58.178.017h-.002c-1.13.003-2.25-.238-3.279-.706-1.03-.468-1.946-1.153-2.687-2.007-.741-.854-1.29-1.858-1.607-2.944-.318-1.085-.399-2.226-.236-3.346.366-2.602.556-5.225.57-7.852V61.943c0-6.948 1.954-13.56 5.726-19.136 3.204-4.757 7.987-8.228 13.503-9.8l36.669-.033.958.243c1.963.505 3.754 1.526 5.19 2.957l.03.028c3.374 3.38 6.047 7.395 7.863 11.813 1.816 4.418 2.74 9.152 2.717 13.928v16.928c.014 2.614.204 5.223.568 7.811.16 1.12.078 2.263-.24 3.349-.319 1.085-.866 2.09-1.606 2.947z"/>
    <path fill="#989898" d="M26.758 41.99c-.123-.092-.263-.16-.412-.199-.149-.038-.304-.048-.456-.026-.153.02-.3.072-.432.15-.133.078-.249.18-.342.303-.207.274-.414.557-.615.84-.09.126-.153.267-.188.417-.034.15-.039.306-.013.458.026.151.08.297.163.427.081.13.188.243.313.333.126.089.268.152.418.187.15.034.305.039.457.013.151-.026.297-.08.427-.163.13-.081.243-.188.333-.313.188-.265.381-.529.575-.785.093-.123.16-.262.2-.411.038-.15.047-.304.026-.457-.021-.152-.072-.299-.15-.432s-.181-.249-.304-.341zM23.166 47.372c-.285-.138-.611-.159-.911-.06-.3.1-.549.313-.694.593-2.488 5.078-3.784 10.657-3.788 16.311v9.21c0 .31.124.609.344.828.22.22.517.344.828.344.311 0 .61-.124.829-.344.22-.22.343-.517.343-.828V64.21c.004-5.294 1.217-10.516 3.546-15.27.072-.135.115-.283.128-.436.014-.152-.003-.306-.05-.452-.046-.145-.12-.28-.22-.398-.098-.116-.219-.213-.355-.282z"/>
</svg>
