<svg xmlns="http://www.w3.org/2000/svg" width="145" height="138" fill="none" viewBox="0 0 145 138">
    <path fill="#DDDCDC" d="M111.308 50.415c-3.03-9.06-8.678-17.019-16.231-22.869-7.553-5.85-16.671-9.329-26.201-9.997-9.53-.668-19.045 1.505-27.34 6.244-8.295 4.74-14.999 11.832-19.263 20.381l43.225 21.56 45.81-15.319z"/>
    <path fill="#1452F5" d="M22.273 44.174c-4.79 9.608-6.245 20.538-4.132 31.065 2.113 10.526 7.672 20.049 15.8 27.064 8.127 7.015 18.36 11.122 29.082 11.674 10.722.552 21.323-2.484 30.127-8.627L65.498 65.734l-43.225-21.56z"/>
    <path fill="#575A89" d="M125.827 52.255L79.523 69.394l29.801 38.621c6.624-4.616 11.98-10.825 15.573-18.055 5.954-11.936 4.851-25.981.93-37.705z"/>
    <path fill="#000" d="M125.827 52.255L79.523 69.394l29.801 38.621c6.624-4.616 11.98-10.825 15.573-18.055 5.954-11.936 4.851-25.981.93-37.705z" opacity=".1"/>
    <path fill="#575A89" d="M126.823 56.058l-45.81 15.319 27.652 39.615c8.548-5.972 14.935-14.549 18.208-24.45 3.272-9.9 3.255-20.594-.05-30.484z"/>
</svg>
