<svg xmlns="http://www.w3.org/2000/svg" width="100" height="100" fill="none" viewBox="0 0 100 100">
    <g fill="#DDDCDC" clip-path="url(#clip0)">
        <path d="M56.25 17.417c-1.15 0-2.083-.934-2.083-2.084v-7c0-2.296-1.871-4.166-4.167-4.166s-4.167 1.87-4.167 4.166v7c0 1.15-.933 2.084-2.083 2.084-1.15 0-2.083-.93-2.083-2.084v-7C41.667 3.737 45.404 0 50 0s8.333 3.737 8.333 8.333v7c0 1.155-.933 2.084-2.083 2.084zM50 100c-8.042 0-14.583-6.542-14.583-14.583 0-1.15.933-2.084 2.083-2.084 1.15 0 2.083.934 2.083 2.084 0 5.741 4.675 10.416 10.417 10.416s10.417-4.675 10.417-10.416c0-1.15.933-2.084 2.083-2.084 1.15 0 2.083.934 2.083 2.084C64.583 93.458 58.042 100 50 100z"/>
        <path d="M85.417 87.5H14.583c-3.446 0-6.25-2.804-6.25-6.25 0-1.83.796-3.558 2.188-4.75 6.566-5.55 10.312-13.625 10.312-22.175V41.667C20.833 25.583 33.917 12.5 50 12.5c16.083 0 29.167 13.083 29.167 29.167v12.658c0 8.554 3.745 16.625 10.279 22.146 1.425 1.22 2.22 2.95 2.22 4.779 0 3.446-2.8 6.25-6.25 6.25zM50 16.667c-13.788 0-25 11.212-25 25v12.658c0 9.783-4.283 19.013-11.754 25.33-.48.407-.746.987-.746 1.595 0 1.15.933 2.083 2.083 2.083h70.834c1.15 0 2.083-.933 2.083-2.083 0-.608-.267-1.188-.73-1.583C79.288 73.337 75 64.104 75 54.325V41.667c0-13.788-11.213-25-25-25z"/>
        <circle cx="37" cy="43" r="3"/>
        <circle cx="63" cy="43" r="3"/>
        <rect width="22" height="3" x="39" y="66" rx="1.5"/>
    </g>
    <defs>
        <clipPath id="clip0">
            <path fill="#fff" d="M0 0H100V100H0z"/>
        </clipPath>
    </defs>
</svg>
