<svg xmlns="http://www.w3.org/2000/svg" width="100" height="100" fill="none" viewBox="0 0 100 100">
    <g clip-path="url(#clip0)">
        <path fill="#AAA" d="M43.398 66.43c-1.078 0-1.952.874-1.952 1.953v2.819c.103 2.59 3.803 2.589 3.906 0v-2.819c0-1.079-.875-1.953-1.953-1.953zM20.685 43.724h-2.82c-2.591.103-2.59 3.803 0 3.906h2.82c2.59-.103 2.589-3.804 0-3.906z"/>
        <path fill="#AAA" d="M85.806 54.885C91.85 28.218 70.757 2.021 43.398 2.301 20.081 1.82-.474 22.357.008 45.677-.267 75.573 30.484 96.94 58.415 86.382 69.575 106.09 99.737 98.54 100 75.583c0-9.416-5.898-17.48-14.194-20.698zM43.399 85.147c-52.381-2.168-52.368-76.78 0-78.94C68.122 5.92 87.369 29.7 82.04 53.8c-1.495-.29-3.069-.436-4.64-.403C82.51 31.998 65.443 10.55 43.4 10.823c-19.225 0-34.866 15.635-34.866 34.854-.343 23.982 24.962 41.42 47.233 32.588.19 1.571.545 3.092 1.047 4.545-4.29 1.55-8.794 2.337-13.414 2.337zm12.255-11.05c-3.874 1.678-7.992 2.529-12.255 2.529C3.502 75.168 1.874 18.677 41.446 14.79v30.887c0 1.079.874 1.953 1.953 1.953h30.898c-.132 2.113-.48 4.198-1.037 6.23-9.599 2.003-16.94 10.221-17.606 20.237zm18.643-30.373H45.352V14.79c15.519.97 27.974 13.421 28.945 28.934zm3.505 50.146c-10.087 0-18.293-8.204-18.293-18.286 1.005-24.259 35.584-24.252 36.585 0 0 10.082-8.206 18.286-18.292 18.286z"/>
        <path fill="#1452F5" d="M77.867 68.79c0-3.366-2.48-6.105-5.528-6.105-7.33.332-7.328 11.88 0 12.21 3.048 0 5.528-2.739 5.528-6.105zm-7.148 0c0-1.192.742-2.199 1.62-2.199.88 0 1.621 1.007 1.621 2.199s-.742 2.199-1.62 2.199c-.879 0-1.621-1.007-1.621-2.199z"/>
        <path fill="#1452F5" d="M83.263 75.859c-2.041 0-3.827 1.23-4.784 3.053l5.298-12.62c.418-.994-.05-2.139-1.045-2.556-.994-.418-2.139.05-2.556 1.044l-8.089 19.267c-.417.995.05 2.14 1.045 2.557.97.414 2.14-.04 2.557-1.045l2.366-5.636c-1.296 3.75 1.375 8.205 5.208 8.145 7.33-.331 7.329-11.88 0-12.21zm0 8.303c-.878 0-1.62-1.007-1.62-2.199s.742-2.199 1.62-2.199c.879 0 1.621 1.007 1.621 2.2 0 1.191-.742 2.198-1.62 2.198zM50.403 29.055c.5 0 1-.19 1.381-.572l4.407-4.406c.763-.763.763-2 0-2.762-.762-.763-1.998-.763-2.761 0l-4.408 4.406c-.762.762-.762 1.999 0 2.762.382.38.881.572 1.381.572zM50.696 38.98c.763.763 2 .764 2.762 0l8.821-8.817c1.76-1.905-.857-4.52-2.762-2.763l-8.82 8.818c-.763.763-.763 2 0 2.762zM61.198 40.654c.763.763 1.999.763 2.762 0l4.407-4.406c1.76-1.904-.858-4.52-2.762-2.762l-4.407 4.406c-.763.762-.763 2 0 2.762z"/>
    </g>
    <defs>
        <clipPath id="clip0">
            <path fill="#fff" d="M0 0H100V100H0z"/>
        </clipPath>
    </defs>
</svg>
