<svg xmlns="http://www.w3.org/2000/svg" width="100" height="100" fill="none" viewBox="0 0 100 100">
    <path fill="#989898" d="M85.432 2.586c-1.674-.77-3.646-.47-5.015.762l-6.499 5.755-8.842-7.91c-1.776-1.59-4.465-1.59-6.241 0L50 9.096l-8.837-7.901c-1.777-1.592-4.466-1.592-6.243 0l-8.844 7.909-6.505-5.755c-1.92-1.706-4.859-1.533-6.565.387-.764.86-1.182 1.971-1.174 3.121v86.288c-.015 2.572 2.057 4.669 4.629 4.684 1.15.007 2.262-.412 3.122-1.176l6.498-5.755 8.842 7.91c1.777 1.591 4.466 1.591 6.242 0L50 90.903l8.836 7.901c1.777 1.592 4.466 1.592 6.243 0l8.844-7.909 6.505 5.755c1.92 1.706 4.859 1.534 6.565-.385.764-.86 1.183-1.973 1.175-3.123V6.856c.023-1.842-1.053-3.521-2.736-4.27zM77.016 87.39c-1.776-1.574-4.45-1.567-6.219.016l-8.841 7.91-8.835-7.902c-1.777-1.592-4.466-1.592-6.243 0l-8.836 7.901-8.845-7.909c-1.761-1.583-4.43-1.59-6.2-.016l-6.482 5.752V80.66l-.023-73.802 6.491 5.753c1.777 1.574 4.451 1.567 6.22-.016l8.84-7.91 8.836 7.902c1.776 1.592 4.466 1.592 6.242 0l8.836-7.901 8.846 7.909c1.761 1.583 4.43 1.59 6.2.017l6.482-5.755v59.316l.023 26.97-6.492-5.753z"/>
    <path fill="#1452F5" d="M72.197 47.658H27.803c-1.293 0-2.342 1.048-2.342 2.342 0 1.293 1.049 2.341 2.342 2.341h44.394c1.293 0 2.341-1.048 2.341-2.341 0-1.294-1.048-2.342-2.341-2.342zM51.122 33.608H27.803c-1.293 0-2.342 1.049-2.342 2.342 0 1.293 1.049 2.342 2.342 2.342h23.319c1.293 0 2.342-1.049 2.342-2.342 0-1.293-1.049-2.342-2.342-2.342zM72.197 61.708H27.803c-1.293 0-2.342 1.048-2.342 2.341 0 1.294 1.049 2.342 2.342 2.342h44.394c1.293 0 2.341-1.048 2.341-2.342 0-1.293-1.048-2.341-2.341-2.341z"/>
</svg>
