<svg width="100" height="74" viewBox="0 0 100 74" fill="none" xmlns="http://www.w3.org/2000/svg">
<path d="M95 17.0002H91.6667V13.6668C91.6667 10.9054 89.4281 8.66683 86.6667 8.66683H83.3333V5.3335C83.3333 2.57204 81.0948 0.333496 78.3333 0.333496H15C14.9683 0.333496 14.9383 0.348496 14.9067 0.350163C14.7777 0.358496 14.6502 0.382038 14.5267 0.420163C14.4742 0.432454 14.4225 0.447455 14.3717 0.465164C14.2004 0.531622 14.0417 0.626412 13.9017 0.745162L0.568333 12.4118C0.412083 12.5529 0.284167 12.7227 0.191667 12.9118C0.167917 12.9618 0.146667 13.0129 0.128333 13.0652C0.0666667 13.2252 0.0302083 13.3939 0.02 13.5652C0.02 13.5968 0 13.6252 0 13.6568V52.0002C0 54.7616 2.23854 57.0002 5 57.0002H8.33333V60.3335C8.33333 63.0949 10.5719 65.3335 13.3333 65.3335H16.6667V68.6668C16.6667 71.4283 18.9052 73.6668 21.6667 73.6668H95C97.7615 73.6668 100 71.4283 100 68.6668V22.0002C100 19.2387 97.7615 17.0002 95 17.0002ZM13.3333 5.66683V10.3335C13.3333 11.2539 12.5871 12.0002 11.6667 12.0002H6.10333L13.3333 5.66683ZM5 53.6668C4.07958 53.6668 3.33333 52.9206 3.33333 52.0002V15.3335H11.6667C14.4281 15.3335 16.6667 13.095 16.6667 10.3335V3.66683H78.3333C79.2537 3.66683 80 4.41308 80 5.3335V52.0002C80 52.9206 79.2537 53.6668 78.3333 53.6668H5ZM13.3333 62.0002C12.4129 62.0002 11.6667 61.2539 11.6667 60.3335V57.0002H78.3333C81.0948 57.0002 83.3333 54.7616 83.3333 52.0002V12.0002H86.6667C87.5871 12.0002 88.3333 12.7464 88.3333 13.6668V60.3335C88.3333 61.2539 87.5871 62.0002 86.6667 62.0002H13.3333ZM96.6667 68.6668C96.6667 69.5872 95.9204 70.3335 95 70.3335H21.6667C20.7462 70.3335 20 69.5872 20 68.6668V65.3335H86.6667C89.4281 65.3335 91.6667 63.0949 91.6667 60.3335V20.3335H95C95.9204 20.3335 96.6667 21.0797 96.6667 22.0002V68.6668Z" fill="#989898"/>
<path d="M10.0003 48.667H6.66699V52.0003H10.0003V48.667Z" fill="#DDDCDC"/>
<path d="M16.6663 48.667H13.333V52.0003H16.6663V48.667Z" fill="#DDDCDC"/>
<path d="M23.3333 48.667H20V52.0003H23.3333V48.667Z" fill="#DDDCDC"/>
<path d="M30.0003 48.667H26.667V52.0003H30.0003V48.667Z" fill="#DDDCDC"/>
<path d="M36.6663 48.667H33.333V52.0003H36.6663V48.667Z" fill="#DDDCDC"/>
<path d="M43.3333 48.667H40V52.0003H43.3333V48.667Z" fill="#DDDCDC"/>
<path d="M50.0003 48.667H46.667V52.0003H50.0003V48.667Z" fill="#DDDCDC"/>
<path d="M56.6663 48.667H53.333V52.0003H56.6663V48.667Z" fill="#DDDCDC"/>
<path d="M63.3333 48.667H60V52.0003H63.3333V48.667Z" fill="#DDDCDC"/>
<path d="M70.0003 48.667H66.667V52.0003H70.0003V48.667Z" fill="#DDDCDC"/>
<path d="M76.6663 48.667H73.333V52.0003H76.6663V48.667Z" fill="#DDDCDC"/>
<path d="M46.6667 15.3335H20V18.6668H46.6667V15.3335Z" fill="#1452F5"/>
<path d="M63.3333 15.3335H50V18.6668H63.3333V15.3335Z" fill="#1452F5"/>
<path d="M50 22H20V25.3333H50V22Z" fill="#1452F5"/>
<path d="M63.333 22H53.333V25.3333H63.333V22Z" fill="#1452F5"/>
<path d="M63.3333 28.667H20V32.0003H63.3333V28.667Z" fill="#1452F5"/>
<path d="M63.3333 35.3335H20V38.6668H63.3333V35.3335Z" fill="#1452F5"/>
</svg>
