<svg width="609" height="187" viewBox="0 0 609 187" fill="none" xmlns="http://www.w3.org/2000/svg">
<path opacity="0.25" d="M160.286 0H26.7143C11.9604 0 0 11.9604 0 26.7143V160.286C0 175.04 11.9604 187 26.7143 187H160.286C175.04 187 187 175.04 187 160.286V26.7143C187 11.9604 175.04 0 160.286 0Z" fill="white"/>
<path d="M141.175 46.2658C139.775 44.8699 138.113 43.7626 136.284 43.0071C134.455 42.2516 132.494 41.8628 130.514 41.8628C128.534 41.8628 126.574 42.2516 124.745 43.0071C122.915 43.7626 121.253 44.8699 119.854 46.2658L83.1406 82.8644C81.7404 84.2598 80.6297 85.9166 79.8718 87.74C79.114 89.5635 78.7236 91.5179 78.7236 93.4916C78.7236 95.4654 79.114 97.4198 79.8718 99.2433C80.6297 101.067 81.7404 102.723 83.1406 104.119L119.854 140.717C121.253 142.113 122.915 143.221 124.745 143.976C126.574 144.732 128.534 145.12 130.514 145.12C132.494 145.12 134.455 144.732 136.284 143.976C138.113 143.221 139.775 142.113 141.175 140.717V140.717C142.575 139.322 143.686 137.665 144.444 135.842C145.201 134.018 145.592 132.064 145.592 130.09C145.592 128.116 145.201 126.162 144.444 124.339C143.686 122.515 142.575 120.858 141.175 119.463L118.665 97.0396C118.196 96.5743 117.824 96.0213 117.571 95.4125C117.317 94.8036 117.187 94.1509 117.187 93.4916C117.187 92.8324 117.317 92.1796 117.571 91.5708C117.824 90.962 118.196 90.409 118.665 89.9436L141.175 67.5204C142.575 66.1249 143.686 64.4682 144.444 62.6447C145.201 60.8213 145.592 58.8668 145.592 56.893C145.592 54.9193 145.201 52.9649 144.444 51.1414C143.686 49.318 142.575 47.6612 141.175 46.2658Z" fill="#04795B"/>
<path d="M119.848 140.713C125.735 146.581 135.279 146.581 141.166 140.713C147.052 134.845 147.052 125.33 141.166 119.462L104.452 82.8627C98.5652 76.9943 89.021 76.9943 83.1343 82.8627C77.2476 88.731 77.2476 98.2454 83.1343 104.114L119.848 140.713Z" fill="#0DB50A"/>
<path d="M104.462 82.8644L67.7488 46.2658C66.349 44.8699 64.6871 43.7626 62.8579 43.0071C61.0287 42.2516 59.0682 41.8628 57.0883 41.8628C55.1083 41.8628 53.1474 42.2516 51.3182 43.0071C49.4891 43.7626 47.8271 44.8699 46.4273 46.2658C45.0271 47.6612 43.9164 49.318 43.1585 51.1414C42.4007 52.9649 42.0107 54.9193 42.0107 56.893C42.0107 58.8668 42.4007 60.8213 43.1585 62.6447C43.9164 64.4682 45.0271 66.1249 46.4273 67.5204L68.9211 89.9436C69.3896 90.409 69.7609 90.962 70.0145 91.5708C70.2681 92.1796 70.3989 92.8324 70.3989 93.4916C70.3989 94.1509 70.2681 94.8036 70.0145 95.4125C69.7609 96.0213 69.3896 96.5743 68.9211 97.0396L46.4273 119.463C45.0271 120.858 43.9164 122.515 43.1585 124.339C42.4007 126.162 42.0107 128.116 42.0107 130.09C42.0107 132.064 42.4007 134.018 43.1585 135.842C43.9164 137.665 45.0271 139.322 46.4273 140.717C47.8271 142.113 49.4891 143.221 51.3182 143.976C53.1474 144.732 55.1083 145.12 57.0883 145.12C59.0682 145.12 61.0287 144.732 62.8579 143.976C64.6871 143.221 66.349 142.113 67.7488 140.717L93.7927 114.738L104.462 104.119C105.862 102.723 106.973 101.067 107.731 99.2433C108.488 97.4198 108.878 95.4654 108.878 93.4916C108.878 91.5179 108.488 89.5635 107.731 87.74C106.973 85.9166 105.862 84.2598 104.462 82.8644Z" fill="#0AE33A"/>
<path d="M130.506 71.9282C138.831 71.9282 145.58 65.2005 145.58 56.9014C145.58 48.6024 138.831 41.8746 130.506 41.8746C122.181 41.8746 115.432 48.6024 115.432 56.9014C115.432 65.2005 122.181 71.9282 130.506 71.9282Z" fill="#0AE33A"/>
<g opacity="0.95">
<path d="M313.857 89.4488L342.028 51.5979C342.371 51.1055 342.575 50.5301 342.619 49.932C342.662 49.3339 342.542 48.7353 342.273 48.199C342.004 47.6627 341.596 47.2085 341.09 46.884C340.584 46.5596 340 46.377 339.399 46.3553H324.208C321.828 46.3586 319.485 46.9395 317.381 48.0478C315.277 49.1562 313.475 50.7586 312.132 52.7166L297.661 73.8877C297.528 74.0874 297.348 74.2513 297.136 74.3647C296.924 74.478 296.687 74.5373 296.447 74.5373C296.206 74.5373 295.97 74.478 295.758 74.3647C295.546 74.2513 295.365 74.0874 295.232 73.8877L281.281 52.9003C279.949 50.8952 278.14 49.2499 276.015 48.1108C273.891 46.9717 271.516 46.3744 269.104 46.372H251.619C251.013 46.3926 250.425 46.5764 249.917 46.9038C249.408 47.2311 248.998 47.6898 248.73 48.2311C248.462 48.7724 248.346 49.3759 248.394 49.9776C248.443 50.5793 248.654 51.1566 249.006 51.648L277.897 89.4654C278.854 90.7308 279.371 92.2722 279.371 93.8566C279.371 95.441 278.854 96.9824 277.897 98.2478L247.599 138.553C247.256 139.045 247.052 139.621 247.009 140.219C246.965 140.817 247.085 141.416 247.354 141.952C247.623 142.488 248.032 142.942 248.538 143.267C249.043 143.591 249.628 143.774 250.229 143.796H265.721C268.092 143.797 270.427 143.223 272.525 142.123C274.623 141.024 276.421 139.432 277.764 137.484L293.959 114.109C294.094 113.917 294.273 113.759 294.481 113.65C294.69 113.541 294.922 113.484 295.157 113.484C295.393 113.484 295.624 113.541 295.833 113.65C296.042 113.759 296.22 113.917 296.354 114.109L312.852 137.635C314.203 139.551 315.995 141.116 318.079 142.197C320.164 143.277 322.478 143.843 324.827 143.846H341.576C342.177 143.824 342.761 143.641 343.267 143.317C343.773 142.993 344.182 142.538 344.451 142.002C344.72 141.466 344.839 140.867 344.796 140.269C344.753 139.671 344.549 139.095 344.206 138.603L313.807 98.2144C312.856 96.9473 312.347 95.4054 312.356 93.8232C312.365 92.241 312.892 90.705 313.857 89.4488Z" fill="white"/>
<path d="M447.26 9.2892V139.905C447.26 140.791 446.908 141.64 446.279 142.267C445.651 142.893 444.799 143.245 443.911 143.245H429.406C428.72 143.235 428.052 143.015 427.495 142.615C426.938 142.215 426.518 141.654 426.291 141.007L424.013 134.329C423.931 134.087 423.786 133.871 423.593 133.703C423.4 133.536 423.166 133.421 422.914 133.372C422.663 133.323 422.403 133.341 422.161 133.424C421.918 133.507 421.702 133.652 421.534 133.845C416.51 139.471 407.801 145.181 394.284 145.181C368.324 145.181 348.744 125.48 348.744 94.7582C348.744 63.2688 368.843 44.6689 394.284 44.6689C405.674 44.6689 414.383 48.5592 419.993 53.3511C420.206 53.5296 420.466 53.6435 420.742 53.6796C421.017 53.7157 421.298 53.6724 421.55 53.5548C421.802 53.4372 422.014 53.2501 422.163 53.0158C422.312 52.7815 422.39 52.5097 422.388 52.2324V20.576C422.388 16.7102 423.929 13.0027 426.671 10.2692C429.413 7.53566 433.132 6 437.01 6H443.911C444.79 5.9999 445.635 6.34482 446.262 6.96027C446.889 7.57571 447.247 8.41227 447.26 9.2892ZM422.439 94.6914C422.439 77.6945 412.942 66.0904 398.22 66.0904C383.498 66.0904 373.6 77.7779 373.6 94.6914C373.6 112.072 383.481 123.676 398.22 123.676C412.959 123.676 422.472 112.072 422.472 94.6914H422.439Z" fill="white"/>
<path d="M596.625 46.8562H603.526C604.414 46.8562 605.266 47.208 605.894 47.8342C606.523 48.4605 606.876 49.3098 606.876 50.1954V128.953C606.876 130.866 606.497 132.76 605.762 134.528C605.027 136.295 603.95 137.901 602.592 139.253C601.234 140.606 599.622 141.678 597.848 142.408C596.074 143.139 594.173 143.514 592.254 143.512H585.353C584.465 143.512 583.613 143.16 582.985 142.534C582.357 141.907 582.004 141.058 582.004 140.173V61.3487C582.026 57.4973 583.576 53.8113 586.316 51.0958C589.056 48.3803 592.762 46.8561 596.625 46.8562Z" fill="white"/>
<path d="M595.336 7.75313H604.765C605.654 7.75313 606.506 8.10495 607.134 8.73118C607.762 9.35742 608.115 10.2068 608.115 11.0924V20.4925C608.089 24.3467 606.532 28.0335 603.785 30.7464C601.039 33.4592 597.326 34.9772 593.46 34.9683H584.03C583.142 34.9683 582.29 34.6165 581.662 33.9903C581.034 33.364 580.681 32.5147 580.681 31.629V22.3291C580.681 20.4122 581.06 18.514 581.797 16.7434C582.534 14.9728 583.614 13.3645 584.975 12.0105C586.336 10.6566 587.952 9.58361 589.73 8.85306C591.508 8.12252 593.413 7.74874 595.336 7.75313Z" fill="white"/>
<path d="M560.482 47.9248V139.905C560.482 140.791 560.129 141.64 559.5 142.267C558.872 142.893 558.021 143.245 557.132 143.245H542.996C542.23 143.233 541.491 142.959 540.903 142.47C540.315 141.981 539.913 141.305 539.764 140.557L538.424 133.427C538.373 133.157 538.246 132.907 538.058 132.706C537.87 132.505 537.629 132.361 537.362 132.291C537.096 132.221 536.815 132.228 536.552 132.311C536.289 132.394 536.055 132.549 535.878 132.759C530.853 138.987 521.491 145.165 507.707 145.165C481.729 145.165 461.949 125.463 461.949 94.7415C461.949 63.252 482.316 44.6522 507.707 44.6522C517.283 44.405 526.625 47.6259 534.002 53.7184C534.189 53.8884 534.417 54.0065 534.664 54.0607C534.911 54.1149 535.168 54.1033 535.409 54.0272C535.65 53.951 535.867 53.8129 536.037 53.6269C536.208 53.4408 536.326 53.2132 536.38 52.9671L537.737 47.1901C537.914 46.4744 538.324 45.8373 538.903 45.3782C539.482 44.9191 540.196 44.6639 540.936 44.6522H557.132C558.009 44.652 558.851 44.9947 559.477 45.6066C560.104 46.2184 560.464 47.0507 560.482 47.9248ZM535.878 94.6748C535.878 77.6778 526.18 66.0738 511.642 66.0738C497.104 66.0738 486.837 77.7613 486.837 94.6748C486.837 112.056 496.887 123.66 511.642 123.66C526.398 123.66 535.878 112.072 535.878 94.6914V94.6748Z" fill="white"/>
</g>
</svg>
