<svg width="16" height="16" viewBox="0 0 16 16" fill="none" xmlns="http://www.w3.org/2000/svg">
<g clip-path="url(#clip0_885:2)">
<path d="M15.8277 5.264C15.6849 5.09528 15.4752 4.99854 15.2524 4.99854H0.748562C0.52597 4.99854 0.31644 5.09528 0.173629 5.26381C0.0403487 5.42116 -0.0198696 5.62584 0.00659899 5.82906L0.862842 14.7647C0.863592 14.7716 0.864342 14.7785 0.86528 14.7852C0.940592 15.349 1.41934 15.774 1.97899 15.774H14.022C14.6104 15.774 15.101 15.3235 15.1381 14.7647L15.9944 5.82925C16.0208 5.62606 15.9608 5.42134 15.8277 5.264ZM14.025 14.6566C14.0244 14.6557 14.0216 14.6551 14.022 14.6555L1.98886 14.6572C1.98402 14.655 1.97693 14.6466 1.97471 14.6401L1.15775 6.11728H14.8432L14.025 14.6566Z" fill="#373737"/>
<path d="M14.5868 2.84998C14.4451 2.68685 14.2391 2.59326 14.0213 2.59326H1.99701C1.77945 2.59326 1.57251 2.69039 1.42917 2.85967C1.28507 3.03007 1.22279 3.25191 1.25786 3.46126L1.59342 5.64243L2.69909 5.4724L2.42822 3.71182H13.5904L13.3197 5.4724L14.4252 5.64243L14.7615 3.45491C14.7928 3.2346 14.7292 3.01404 14.5868 2.84998Z" fill="#373737"/>
<path d="M12.9283 0.483166C12.7866 0.319855 12.5805 0.226074 12.3623 0.226074H3.65634C3.43878 0.226074 3.23185 0.323198 3.0885 0.492478C2.94422 0.662883 2.88213 0.884725 2.91738 1.09557L3.25294 3.23946L4.35806 3.06646L4.0885 1.34463H11.9263L11.6428 3.06177L12.7464 3.24408L13.1025 1.08863C13.1341 0.867944 13.0706 0.647415 12.9283 0.483166Z" fill="#373737"/>
<path d="M10.349 8.52197H5.65107C5.34217 8.52197 5.0918 8.77235 5.0918 9.08125C5.0918 9.39015 5.34217 9.64053 5.65107 9.64053H10.349C10.6579 9.64053 10.9082 9.39015 10.9082 9.08125C10.9082 8.77235 10.6579 8.52197 10.349 8.52197Z" fill="#373737"/>
</g>
<defs>
<clipPath id="clip0_885:2">
<rect width="16" height="16" fill="white"/>
</clipPath>
</defs>
</svg>
