<svg width="20" height="20" viewBox="0 0 20 20" fill="none" xmlns="http://www.w3.org/2000/svg">
<path d="M14.9998 4.99997C14.8436 4.84374 14.6317 4.75598 14.4107 4.75598C14.1897 4.75598 13.9778 4.84374 13.8215 4.99997L9.99985 8.82164L6.17818 4.99997C6.02191 4.84374 5.80998 4.75598 5.58901 4.75598C5.36804 4.75598 5.15612 4.84374 4.99985 4.99997C4.84362 5.15624 4.75586 5.36817 4.75586 5.58914C4.75586 5.81011 4.84362 6.02203 4.99985 6.1783L8.82152 9.99997L4.99985 13.8216C4.84362 13.9779 4.75586 14.1898 4.75586 14.4108C4.75586 14.6318 4.84362 14.8437 4.99985 15C5.15612 15.1562 5.36804 15.244 5.58901 15.244C5.80998 15.244 6.02191 15.1562 6.17818 15L9.99985 11.1783L13.8215 15C13.9778 15.1562 14.1897 15.244 14.4107 15.244C14.6317 15.244 14.8436 15.1562 14.9998 15C15.1561 14.8437 15.2438 14.6318 15.2438 14.4108C15.2438 14.1898 15.1561 13.9779 14.9998 13.8216L11.1782 9.99997L14.9998 6.1783C15.1561 6.02203 15.2438 5.81011 15.2438 5.58914C15.2438 5.36817 15.1561 5.15624 14.9998 4.99997Z" fill="#373737"/>
</svg>
