<svg width="14" height="14" viewBox="0 0 14 14" fill="none" xmlns="http://www.w3.org/2000/svg">
    <path d="M0.874726 13.5624C0.812989 13.5628 0.751872 13.5501 0.695392 13.5252C0.638912 13.5003 0.588348 13.4637 0.547025 13.4178C0.505701 13.3719 0.474554 13.3178 0.45563 13.2591C0.436706 13.2003 0.430434 13.1382 0.437226 13.0768L0.830976 9.50244C0.842011 9.40301 0.88679 9.31036 0.957851 9.23994L9.30535 0.896816C9.4501 0.751177 9.62222 0.635598 9.81181 0.556728C10.0014 0.477859 10.2047 0.437256 10.41 0.437256C10.6154 0.437256 10.8187 0.477859 11.0083 0.556728C11.1979 0.635598 11.37 0.751177 11.5147 0.896816L13.1247 2.48494C13.2704 2.62969 13.3859 2.80181 13.4648 2.9914C13.5437 3.18098 13.5843 3.38429 13.5843 3.58963C13.5843 3.79497 13.5437 3.99828 13.4648 4.18786C13.3859 4.37745 13.2704 4.54957 13.1247 4.69432L4.75973 13.0374C4.68931 13.1085 4.59666 13.1533 4.49723 13.1643L0.922851 13.5624H0.874726ZM1.68848 9.74744L1.3691 12.6306L4.25223 12.3112L12.486 4.07307C12.6137 3.9437 12.6853 3.76923 12.6853 3.58744C12.6853 3.40565 12.6137 3.23119 12.486 3.10182L10.8979 1.51369C10.7685 1.38598 10.594 1.31437 10.4122 1.31437C10.2304 1.31437 10.056 1.38598 9.9266 1.51369L1.68848 9.74744Z" fill="white"/>
    <path d="M12.9466 3.14646L10.8537 1.05357C10.6585 0.858303 10.3419 0.858303 10.1466 1.05357L1.50724 9.69297C1.43744 9.76277 1.38986 9.85167 1.37051 9.94846L0.847282 12.5646C0.77731 12.9144 1.08577 13.2229 1.43563 13.1529L4.05175 12.6297C4.14854 12.6103 4.23744 12.5628 4.30724 12.493L12.9466 3.85357C13.1419 3.6583 13.1419 3.34172 12.9466 3.14646Z" fill="white"/>
    <path d="M11.6023 6.01119C11.4876 6.0107 11.3776 5.96514 11.2961 5.88431L8.11547 2.70368C8.03367 2.61956 7.98864 2.50639 7.99028 2.38906C7.99192 2.27173 8.0401 2.15986 8.12422 2.07806C8.20835 1.99626 8.32152 1.95122 8.43885 1.95286C8.55618 1.9545 8.66805 2.00269 8.74985 2.08681L11.913 5.24994C11.9945 5.33191 12.0402 5.44279 12.0402 5.55837C12.0402 5.67395 11.9945 5.78484 11.913 5.86681C11.8736 5.91053 11.8258 5.94585 11.7724 5.97066C11.719 5.99547 11.6612 6.00925 11.6023 6.01119Z" fill="#1452F5"/>
    <path d="M8.11182 5.2677L4.13965 9.23987L4.75837 9.85859L8.73054 5.88641L8.11182 5.2677Z" fill="#1452F5"/>
</svg>
