<svg width="16" height="16" viewBox="0 0 16 16" fill="none" xmlns="http://www.w3.org/2000/svg">
<g clip-path="url(#clip0_766:486)">
<path d="M13.1427 8.00036C12.8271 8.00036 12.5712 8.2562 12.5712 8.5718V14.286C12.5712 14.6016 12.3154 14.8574 11.9998 14.8574H1.71426C1.39866 14.8574 1.14283 14.6016 1.14283 14.286V2.85757C1.14283 2.54198 1.39866 2.28614 1.71426 2.28614H8.57132C8.88691 2.28614 9.14275 2.03031 9.14275 1.71471C9.14275 1.39911 8.88691 1.14331 8.57132 1.14331H1.71426C0.767501 1.14331 0 1.91081 0 2.85757V14.286C0 15.2327 0.767501 16.0002 1.71426 16.0002H11.9998C12.9466 16.0002 13.7141 15.2327 13.7141 14.286V8.57176C13.7141 8.2562 13.4583 8.00036 13.1427 8.00036Z" fill="#373737"/>
<path d="M15.3595 0.640782C14.9492 0.23043 14.3927 -5.7923e-05 13.8124 9.04044e-06C13.2318 -0.00166504 12.6748 0.229225 12.2656 0.64115L4.73882 8.1673C4.67638 8.23021 4.62927 8.30668 4.60111 8.39072L3.45828 11.8193C3.35853 12.1187 3.52042 12.4422 3.81985 12.542C3.87794 12.5613 3.93877 12.5712 3.99998 12.5712C4.06132 12.5711 4.12229 12.5613 4.18054 12.5421L7.60908 11.3993C7.69328 11.3712 7.76979 11.3238 7.8325 11.261L15.3593 3.73426C16.2136 2.88007 16.2137 1.49507 15.3595 0.640782ZM14.5513 2.92681L7.12279 10.3553L4.90338 11.0964L5.64223 8.87986L13.0736 1.45141C13.4821 1.04367 14.1439 1.04434 14.5516 1.45288C14.7464 1.64805 14.8561 1.91225 14.857 2.18797C14.8577 2.46517 14.7476 2.73114 14.5513 2.92681Z" fill="#373737"/>
</g>
<defs>
<clipPath id="clip0_766:486">
<rect width="16" height="16" fill="white"/>
</clipPath>
</defs>
</svg>
