<svg width="10" height="10" viewBox="0 0 10 10" fill="none" xmlns="http://www.w3.org/2000/svg">
<path d="M0.624944 9.68746C0.580846 9.68773 0.537191 9.67866 0.496848 9.66086C0.456505 9.64305 0.420388 9.6169 0.390872 9.58414C0.361355 9.55137 0.339107 9.51273 0.325589 9.47076C0.312072 9.42878 0.307592 9.38442 0.312444 9.34059L0.593694 6.78746C0.601576 6.71644 0.633561 6.65026 0.684319 6.59996L6.64682 0.640589C6.75021 0.536561 6.87315 0.454005 7.00857 0.39767C7.14399 0.341334 7.28921 0.312332 7.43588 0.312332C7.58255 0.312332 7.72777 0.341334 7.86319 0.39767C7.99861 0.454005 8.12155 0.536561 8.22494 0.640589L9.37494 1.77496C9.47897 1.87836 9.56153 2.0013 9.61786 2.13672C9.6742 2.27214 9.7032 2.41736 9.7032 2.56403C9.7032 2.7107 9.6742 2.85592 9.61786 2.99134C9.56153 3.12675 9.47897 3.2497 9.37494 3.35309L3.39994 9.31246C3.34964 9.36322 3.28347 9.39521 3.21244 9.40309L0.659319 9.68746H0.624944ZM1.20619 6.96246L0.978069 9.02184L3.03744 8.79371L8.91869 2.90934C9.00992 2.81693 9.06107 2.69231 9.06107 2.56246C9.06107 2.43262 9.00992 2.308 8.91869 2.21559L7.78432 1.08121C7.69191 0.989992 7.56729 0.938843 7.43744 0.938843C7.3076 0.938843 7.18298 0.989992 7.09057 1.08121L1.20619 6.96246Z" fill="#1452F5"/>
<path d="M9.14645 2.14645L7.85355 0.853553C7.65829 0.658291 7.34171 0.658292 7.14645 0.853554L1.10705 6.89295C1.03725 6.96275 0.989669 7.05165 0.97031 7.14845L0.647087 8.76456C0.577115 9.11442 0.885575 9.42288 1.23544 9.35291L2.85155 9.02969C2.94835 9.01033 3.03725 8.96275 3.10705 8.89295L9.14645 2.85355C9.34171 2.65829 9.34171 2.34171 9.14645 2.14645Z" fill="#1452F5"/>
<path d="M8.28748 4.2937C8.2055 4.29335 8.12694 4.26081 8.06873 4.20307L5.79685 1.9312C5.73842 1.87111 5.70626 1.79027 5.70743 1.70647C5.7086 1.62266 5.74302 1.54275 5.8031 1.48432C5.86319 1.42589 5.94403 1.39373 6.02784 1.3949C6.11164 1.39607 6.19155 1.43049 6.24998 1.49057L8.50935 3.74995C8.56756 3.8085 8.60023 3.8877 8.60023 3.97026C8.60023 4.05282 8.56756 4.13202 8.50935 4.19057C8.48121 4.2218 8.44705 4.24703 8.40893 4.26475C8.3708 4.28247 8.3295 4.29232 8.28748 4.2937Z" fill="#F7F7F7"/>
<path d="M5.79454 3.76265L2.95728 6.59991L3.39922 7.04186L6.23648 4.20459L5.79454 3.76265Z" fill="#F7F7F7"/>
</svg>
