<svg xmlns="http://www.w3.org/2000/svg" width="15" height="15" fill="none" viewBox="0 0 15 15">
    <path fill="#373737" d="M7.5 0C3.364 0 0 3.365 0 7.5 0 11.636 3.365 15 7.5 15c4.136 0 7.5-3.364 7.5-7.5C15 3.365 11.636 0 7.5 0zm0 13.636c-3.384 0-6.136-2.752-6.136-6.136 0-3.384 2.752-6.136 6.136-6.136 3.384 0 6.136 2.752 6.136 6.136 0 3.384-2.752 6.136-6.136 6.136z"/>
    <path fill="#373737" d="M7.5 3.182c-.501 0-.909.408-.909.91 0 .5.408.908.909.908.501 0 .909-.408.909-.909 0-.501-.408-.91-.909-.91zM7.5 6.364c-.377 0-.682.305-.682.682v4.09c0 .377.305.682.682.682.376 0 .682-.305.682-.681V7.046c0-.377-.306-.682-.682-.682z"/>
</svg>
