<svg xmlns="http://www.w3.org/2000/svg" width="14" height="14" fill="none" viewBox="0 0 14 14">
    <g fill="#000" clip-path="url(#clip0)">
        <path d="M5.804 10.67l-1.65 1.65c-.684.684-1.791.684-2.474 0-.684-.683-.684-1.79 0-2.474l3.3-3.3c.683-.683 1.79-.683 2.474 0 .228.228.597.228.825 0 .228-.228.228-.597 0-.825-1.14-1.139-2.986-1.139-4.125 0l-3.3 3.3c-1.139 1.14-1.139 2.986 0 4.124 1.14 1.14 2.986 1.14 4.125 0l1.65-1.65c.228-.227.228-.596 0-.824-.228-.228-.597-.228-.825 0z"/>
        <path d="M13.146.854c-1.14-1.14-2.986-1.14-4.125 0L7.04 2.833c-.227.228-.227.597 0 .825.228.228.598.228.825 0l1.98-1.98c.683-.683 1.791-.683 2.475 0 .683.684.683 1.792 0 2.475l-3.63 3.63c-.683.683-1.79.683-2.474 0-.228-.228-.597-.228-.825 0-.228.227-.228.597 0 .825 1.139 1.139 2.985 1.139 4.124 0l3.63-3.63c1.139-1.139 1.139-2.985 0-4.124z"/>
    </g>
    <defs>
        <clipPath id="clip0">
            <path fill="#fff" d="M0 0H14V14H0z"/>
        </clipPath>
    </defs>
</svg>
