<svg xmlns="http://www.w3.org/2000/svg" width="20" height="20" fill="none" viewBox="0 0 20 20">
    <path fill="#373737" d="M10 3.478c-1.678 0-3.044 1.365-3.044 3.044C6.956 8.2 8.322 9.565 10 9.565s3.043-1.365 3.043-3.043c0-1.679-1.365-3.044-3.043-3.044zm0 5.218c-1.198 0-2.174-.976-2.174-2.174 0-1.199.976-2.174 2.174-2.174s2.174.975 2.174 2.174c0 1.198-.976 2.174-2.174 2.174zM10 10.435c-3.117 0-5.652 2.535-5.652 5.652 0 .24.195.435.435.435s.434-.195.434-.435c0-2.637 2.146-4.783 4.783-4.783 2.637 0 4.783 2.146 4.783 4.783 0 .24.194.435.434.435s.435-.195.435-.435c0-3.117-2.535-5.652-5.652-5.652z"/>
</svg>
