<svg width="20" height="20" viewBox="0 0 20 20" fill="none" xmlns="http://www.w3.org/2000/svg">
<path d="M19.9997 4.43879C19.9997 1.99125 18.0085 0 15.561 0C13.4899 0 11.7458 1.42594 11.2582 3.34758C10.3878 3.05582 9.47759 2.90766 8.5456 2.90766C6.84677 2.90766 5.20532 3.40523 3.79864 4.34664C3.61935 4.46664 3.5713 4.70926 3.69126 4.88855C3.76661 5.00113 3.89024 5.06195 4.01626 5.06195C4.09095 5.06195 4.16646 5.04059 4.23317 4.99594C5.51083 4.1409 7.00204 3.68895 8.5456 3.68895C9.43681 3.68895 10.3058 3.83781 11.1332 4.13086C11.1262 4.23262 11.1224 4.33527 11.1224 4.43879C11.1224 6.88574 13.1135 8.87645 15.561 8.87645C15.6643 8.87645 15.7667 8.87262 15.8683 8.86563C16.1618 9.6957 16.3109 10.5647 16.3109 11.4533C16.3109 12.4887 16.1065 13.477 15.737 14.381C15.5199 13.6716 14.9958 13.082 14.3131 12.7848C14.5426 12.4225 14.6761 11.9937 14.6761 11.5341C14.6761 10.2423 13.6247 9.19141 12.3324 9.19141C11.9448 9.19141 11.5707 9.28551 11.2368 9.4623C10.8753 8.32063 9.80571 7.49066 8.54563 7.49066C7.2856 7.49066 6.21603 8.32055 5.85454 9.46215C5.52114 9.28543 5.14704 9.19141 4.75888 9.19141C3.46712 9.19141 2.41622 10.2423 2.41622 11.5341C2.41622 11.9938 2.54966 12.4226 2.77907 12.7848C2.0963 13.082 1.57216 13.6718 1.35513 14.3816C0.985713 13.4774 0.781494 12.4888 0.781494 11.4533C0.781494 9.92223 1.22688 8.44078 2.06954 7.16918C2.18872 6.98934 2.13954 6.74695 1.9597 6.62777C1.77985 6.50859 1.53747 6.55781 1.41829 6.73762C0.490596 8.13754 0.000244141 9.7682 0.000244141 11.4533C0.000244141 13.7362 0.889033 15.8824 2.5029 17.4966C4.11688 19.111 6.2629 20 8.54563 20C10.8284 20 12.9746 19.111 14.5889 17.4967C16.2031 15.8824 17.0921 13.7361 17.0921 11.4533C17.0921 10.5237 16.9438 9.61352 16.6515 8.74078C18.5735 8.25355 19.9997 6.50965 19.9997 4.43879V4.43879ZM8.54563 8.27187C9.67099 8.27187 10.5865 9.18691 10.5865 10.3117C10.5865 11.4371 9.67095 12.3526 8.54563 12.3526C7.42032 12.3526 6.50478 11.4371 6.50478 10.3117C6.50474 9.18695 7.42028 8.27187 8.54563 8.27187V8.27187ZM4.26642 14.7651V17.9295C3.37384 17.3375 2.61013 16.5663 2.02712 15.6673V15.1105C2.02712 14.3069 2.58798 13.6031 3.35603 13.41C3.65888 13.6373 4.01841 13.7926 4.40911 13.8514C4.31669 14.1417 4.26642 14.4489 4.26642 14.7651ZM4.75888 13.0967C3.8979 13.0967 3.19747 12.3957 3.19747 11.5341C3.19747 10.6731 3.89794 9.97262 4.75888 9.97262C5.1136 9.97262 5.45044 10.0902 5.72364 10.3061C5.72364 10.308 5.72349 10.3098 5.72349 10.3117C5.72349 10.9058 5.90849 11.4574 6.22329 11.9126C5.62263 12.1478 5.11579 12.5676 4.7686 13.0965C4.76532 13.0966 4.7622 13.0967 4.75888 13.0967V13.0967ZM12.0436 18.3849C10.9918 18.9179 9.80321 19.2188 8.54563 19.2188C7.28802 19.2188 6.09946 18.9178 5.04767 18.3847V14.7651C5.04767 13.7047 5.79935 12.7782 6.82134 12.5435C7.2986 12.9131 7.89665 13.1339 8.54563 13.1339C9.19462 13.1339 9.79271 12.9131 10.27 12.5434C11.2919 12.778 12.0436 13.7046 12.0436 14.7651V18.3849ZM12.3219 13.0964C11.9747 12.5678 11.4684 12.1477 10.8679 11.9126C11.1827 11.4574 11.3677 10.9059 11.3677 10.3117C11.3677 10.3097 11.3675 10.3078 11.3675 10.3057C11.6418 10.09 11.9787 9.97262 12.3323 9.97262C13.1939 9.97262 13.8949 10.6731 13.8949 11.5341C13.8949 12.3957 13.1939 13.0967 12.3323 13.0967C12.3288 13.0967 12.3255 13.0964 12.3219 13.0964V13.0964ZM15.0652 15.6655C14.4819 16.5652 13.7182 17.3376 12.8249 17.9298V14.7651C12.8249 14.4489 12.775 14.1416 12.6826 13.8514C13.0734 13.7925 13.433 13.6373 13.7359 13.41C14.5042 13.603 15.0652 14.3069 15.0652 15.1105V15.6655ZM15.561 8.0952C13.5443 8.0952 11.9036 6.45492 11.9036 4.43879C11.9036 2.42203 13.5443 0.78125 15.561 0.78125C17.5777 0.78125 19.2184 2.42199 19.2184 4.43879C19.2184 6.45492 17.5777 8.0952 15.561 8.0952Z" fill="#373737"/>
<path d="M17.3238 4.04817H15.9517V2.67493C15.9517 2.45918 15.7768 2.2843 15.5611 2.2843C15.3453 2.2843 15.1704 2.45918 15.1704 2.67493V4.04817H13.7972C13.5815 4.04817 13.4066 4.22305 13.4066 4.43879C13.4066 4.65454 13.5815 4.82942 13.7972 4.82942H15.1704V6.20153C15.1704 6.41727 15.3453 6.59215 15.5611 6.59215C15.7768 6.59215 15.9517 6.41727 15.9517 6.20153V4.82942H17.3238C17.5395 4.82942 17.7144 4.65454 17.7144 4.43879C17.7144 4.22305 17.5395 4.04817 17.3238 4.04817V4.04817Z" fill="#373737"/>
</svg>
