<svg xmlns="http://www.w3.org/2000/svg" width="14" height="14" fill="none" viewBox="0 0 14 14">
    <path fill="#1452F5" d="M7 0C3.14 0 0 3.14 0 7s3.14 7 7 7 7-3.14 7-7-3.14-7-7-7zm0 11.083c-.322 0-.583-.261-.583-.583 0-.322.261-.583.583-.583.322 0 .583.261.583.583 0 .322-.261.583-.583.583zm.923-3.709c-.206.096-.34.304-.34.53v.263c0 .322-.26.583-.583.583-.323 0-.583-.261-.583-.583v-.262c0-.681.4-1.305 1.018-1.59.594-.274 1.023-1 1.023-1.357C8.458 4.155 7.804 3.5 7 3.5c-.804 0-1.458.655-1.458 1.458 0 .322-.261.584-.584.584-.322 0-.583-.262-.583-.584 0-1.447 1.178-2.625 2.625-2.625s2.625 1.178 2.625 2.625c0 .788-.684 1.947-1.702 2.416z"/>
</svg>
