<svg width="10" height="10" viewBox="0 0 10 10" fill="none" xmlns="http://www.w3.org/2000/svg">
<g clip-path="url(#clip0)">
<path d="M8.04577 2.19169C7.97285 2.19169 7.8991 2.16627 7.83994 2.11419C7.05119 1.42252 6.04244 1.04169 4.99994 1.04169C4.01744 1.04169 3.0566 1.38627 2.2941 2.01252C2.16035 2.1221 1.96327 2.10252 1.8541 1.96919C1.74494 1.83585 1.7641 1.63877 1.89744 1.52919C2.77119 0.811687 3.87327 0.416687 4.99994 0.416687C6.1941 0.416687 7.3491 0.85252 8.25202 1.64419C8.3816 1.75794 8.39452 1.95544 8.28077 2.08544C8.2191 2.15544 8.13244 2.19169 8.04577 2.19169Z" fill="#989898"/>
<path d="M3.02079 2.08332H1.97913C1.80663 2.08332 1.66663 1.94332 1.66663 1.77082V0.729158C1.66663 0.602908 1.74288 0.488741 1.85954 0.440408C1.97621 0.392075 2.11079 0.418741 2.19996 0.508325L3.24163 1.54999C3.33079 1.63916 3.35788 1.77374 3.30954 1.89041C3.26121 2.00707 3.14704 2.08332 3.02079 2.08332V2.08332Z" fill="#989898"/>
<path d="M5.04992 9.58333C3.85534 9.58333 2.70034 9.1475 1.79784 8.35583C1.66784 8.24208 1.65534 8.04458 1.76909 7.91458C1.88284 7.785 2.08034 7.77208 2.21034 7.88583C2.99867 8.5775 4.00701 8.95833 5.04992 8.95833C6.03242 8.95833 6.99326 8.61375 7.75576 7.9875C7.88909 7.8775 8.08576 7.89708 8.19576 8.03083C8.30534 8.16416 8.28576 8.36125 8.15242 8.47083C7.27867 9.18833 6.17659 9.58333 5.04992 9.58333V9.58333Z" fill="#989898"/>
<path d="M8.02072 9.58334C7.93947 9.58334 7.85947 9.55167 7.79989 9.49167L6.75823 8.45001C6.66907 8.36084 6.64198 8.22625 6.69032 8.10959C6.73865 7.99292 6.85282 7.91667 6.97906 7.91667H8.02072C8.19322 7.91667 8.33322 8.05667 8.33322 8.22917V9.27084C8.33322 9.39709 8.25697 9.51126 8.1403 9.55959C8.10155 9.57542 8.06114 9.58334 8.02072 9.58334Z" fill="#989898"/>
<path d="M2.08329 5.00002C2.65859 5.00002 3.12496 4.53365 3.12496 3.95835C3.12496 3.38306 2.65859 2.91669 2.08329 2.91669C1.508 2.91669 1.04163 3.38306 1.04163 3.95835C1.04163 4.53365 1.508 5.00002 2.08329 5.00002Z" fill="#989898"/>
<path d="M3.02083 5.41667H1.14583C0.51375 5.41667 0 5.93042 0 6.56251V6.77084C0 6.94334 0.14 7.08334 0.3125 7.08334H3.85417C4.02667 7.08334 4.16667 6.94334 4.16667 6.77084V6.56251C4.16667 5.93042 3.65292 5.41667 3.02083 5.41667Z" fill="#989898"/>
<path d="M7.91666 5.00002C8.49195 5.00002 8.95832 4.53365 8.95832 3.95835C8.95832 3.38306 8.49195 2.91669 7.91666 2.91669C7.34137 2.91669 6.875 3.38306 6.875 3.95835C6.875 4.53365 7.34137 5.00002 7.91666 5.00002Z" fill="#989898"/>
<path d="M8.85421 5.41667H6.97921C6.34712 5.41667 5.83337 5.93042 5.83337 6.56251V6.77084C5.83337 6.94334 5.97337 7.08334 6.14587 7.08334H9.68754C9.86004 7.08334 10 6.94334 10 6.77084V6.56251C10 5.93042 9.48629 5.41667 8.85421 5.41667Z" fill="#989898"/>
</g>
<defs>
<clipPath id="clip0">
<rect width="10" height="10" fill="white"/>
</clipPath>
</defs>
</svg>
