<svg xmlns="http://www.w3.org/2000/svg" width="20" height="20" fill="none" viewBox="0 0 20 20">
    <path fill="#373737" d="M8.9 14.853c-1.363 0-2.696-.405-3.83-1.162-1.134-.758-2.018-1.835-2.54-3.095-.521-1.26-.658-2.646-.392-3.984.266-1.337.923-2.566 1.887-3.53.965-.964 2.193-1.621 3.53-1.887 1.338-.266 2.725-.13 3.985.392 1.26.522 2.337 1.406 3.094 2.54.758 1.134 1.162 2.467 1.162 3.83-.002 1.829-.73 3.581-2.022 4.874-1.292 1.293-3.045 2.02-4.873 2.022zm0-13.018c-1.21 0-2.393.36-3.4 1.032-1.007.673-1.792 1.629-2.255 2.747-.463 1.119-.585 2.35-.348 3.537.236 1.188.819 2.279 1.675 3.135.856.856 1.947 1.44 3.134 1.676 1.188.236 2.419.115 3.537-.349 1.12-.463 2.075-1.248 2.748-2.254.673-1.007 1.032-2.19 1.032-3.401-.002-1.623-.647-3.18-1.795-4.327C12.08 2.483 10.524 1.838 8.9 1.836z"/>
    <path fill="#373737" d="M8.9 8.344c-.415-.013-.819-.148-1.159-.389-.34-.24-.6-.576-.751-.965-.15-.388-.183-.813-.094-1.22.09-.406.297-.778.596-1.068.299-.29.677-.485 1.086-.562.41-.076.833-.03 1.216.132.384.163.711.435.941.782.23.347.353.754.353 1.171 0 .103-.04.2-.113.273-.073.073-.171.114-.274.114-.102 0-.2-.041-.273-.114-.073-.072-.114-.17-.114-.273.014-.283-.057-.563-.204-.805-.147-.241-.363-.434-.62-.552-.257-.117-.544-.155-.823-.109-.279.047-.538.176-.742.371-.205.195-.347.447-.407.724-.06.276-.037.564.068.827.105.263.287.488.521.647.234.158.511.243.794.243.102 0 .2.04.273.113.073.073.114.171.114.274 0 .102-.041.2-.114.273-.072.073-.17.113-.273.113z"/>
    <path fill="#373737" d="M8.901 11.81c-.57.007-1.122-.211-1.532-.609-.41-.397-.645-.94-.655-1.511 0-.103.04-.201.113-.274.073-.072.171-.113.274-.113.102 0 .2.04.273.113.073.073.113.171.113.274-.014.282.057.563.204.805.147.242.363.434.62.552.258.118.544.156.823.11.28-.048.538-.177.743-.372.205-.195.347-.447.407-.723.06-.277.037-.565-.069-.828-.105-.263-.286-.488-.52-.646-.235-.159-.511-.244-.794-.244-.103 0-.2-.04-.273-.113-.073-.072-.114-.17-.114-.273 0-.103.041-.201.114-.274.072-.072.17-.113.273-.113.284-.01.567.038.833.14.265.103.507.258.711.455.205.198.367.435.478.697.111.261.168.543.168.827 0 .285-.057.566-.168.828-.11.262-.273.498-.478.696-.204.198-.446.352-.711.455-.266.102-.549.15-.833.14z"/>
    <path fill="#373737" d="M8.901 12.46c-.103 0-.2-.042-.273-.114-.073-.073-.114-.171-.114-.274V3.841c0-.103.041-.201.114-.274.072-.072.17-.113.273-.113.103 0 .2.041.273.113.073.073.114.171.114.274v8.231c0 .103-.041.201-.114.274-.072.072-.17.113-.273.113zM17.85 17.246l-2.671-4.911c-.43-.723-1.476-.724-1.906 0l-2.671 4.911c-.44.739.092 1.674.952 1.674h5.344c.86 0 1.392-.935.953-1.674zm-3.624.787c-.244 0-.443-.199-.443-.443s.199-.443.443-.443.443.199.443.443-.199.443-.443.443zm.443-1.772c0 .244-.199.443-.443.443s-.443-.2-.443-.443v-2.216c0-.245.199-.444.443-.444s.443.2.443.444v2.216z"/>
</svg>
