<svg xmlns="http://www.w3.org/2000/svg" width="20" height="20" fill="none" viewBox="0 0 20 20">
    <circle cx="10" cy="10" r="10" fill="#1452F5"/>
    <g fill="#fff" clip-path="url(#clip0)">
        <path d="M14.666 11.002c0 .933-.56 1-.666 1H5.804l1.763-1.764-.47-.473-2.333 2.333c-.13.13-.13.34 0 .47l2.333 2.334.47-.47-1.763-1.764H14c.46 0 1.333-.333 1.333-1.666v-1h-.667v1z"/>
        <path d="M5.334 9.002c0-.934.56-1 .666-1h8.197l-1.764 1.763.47.47 2.333-2.333c.13-.13.13-.34 0-.47l-2.333-2.333-.473.473 1.767 1.763H6c-.46 0-1.333.334-1.333 1.667v1h.667v-1z"/>
    </g>
    <defs>
        <clipPath id="clip0">
            <path fill="#fff" d="M0 0H10.667V10.667H0z" transform="translate(4.667 4.667)"/>
        </clipPath>
    </defs>
</svg>
