<svg width="30" height="30" viewBox="0 0 30 30" fill="none" xmlns="http://www.w3.org/2000/svg">
<circle cx="15" cy="15" r="15" transform="rotate(-90 15 15)" fill="#1452F5"/>
<g clip-path="url(#clip0)">
<path d="M16.5024 7.99984C17.9023 7.99984 18.0023 8.8398 18.0023 8.99979V21.2942L15.3574 18.6493L14.6475 19.3543L18.1473 22.8541C18.3423 23.048 18.6572 23.048 18.8523 22.8541L22.3521 19.3543L21.6471 18.6493L19.0022 21.2942V8.99979C19.0022 8.30982 18.5023 6.99989 16.5024 6.99989H15.0024V7.99984H16.5024Z" fill="white"/>
<path d="M13.5024 21.9993C12.1025 21.9993 12.0025 21.1594 12.0025 20.9994V8.70497L14.6474 11.3498L15.3523 10.6449L11.8525 7.14504C11.6575 6.95118 11.3426 6.95118 11.1475 7.14504L7.64771 10.6449L8.35767 11.3548L11.0025 8.70497V20.9994C11.0025 21.6893 11.5025 22.9993 13.5024 22.9993H15.0023V21.9993H13.5024Z" fill="white"/>
</g>
<defs>
<clipPath id="clip0">
<rect width="16" height="16" fill="white" transform="translate(6.99976 22.9995) rotate(-90)"/>
</clipPath>
</defs>
</svg>
